<?xml version="1.0" standalone="no"?>
<!DOCTYPE svg PUBLIC "-//W3C//DTD SVG 1.1//EN" "http://www.w3.org/Graphics/SVG/1.1/DTD/svg11.dtd" >
<svg xmlns="http://www.w3.org/2000/svg" xmlns:xlink="http://www.w3.org/1999/xlink" version="1.1">
<metadata></metadata>
<defs>
<font id="textathin_italic" horiz-adv-x="1175" >
<font-face units-per-em="2048" ascent="1536" descent="-512" />
<missing-glyph horiz-adv-x="497" />
<glyph horiz-adv-x="0" />
<glyph horiz-adv-x="682" />
<glyph horiz-adv-x="0" />
<glyph horiz-adv-x="0" />
<glyph unicode="&#xd;" horiz-adv-x="0" />
<glyph unicode=" "  horiz-adv-x="497" />
<glyph unicode="&#x09;" horiz-adv-x="497" />
<glyph unicode="&#xa0;" horiz-adv-x="497" />
<glyph unicode="!" horiz-adv-x="354" d="M371 1229l-144 -959h-24l125 959h43zM127 31q0 23 19 41t42 18q20 0 34 -14t14 -33q0 -23 -19 -41t-43 -18q-20 0 -33.5 14t-13.5 33z" />
<glyph unicode="&#x22;" horiz-adv-x="534" d="M418 1401l-127 -428h-25l88 428h64zM631 1401l-129 -428h-25l90 428h64z" />
<glyph unicode="#" horiz-adv-x="1214" d="M1139 1194l-133 -358h251l-14 -41h-252l-147 -404h239l-14 -41h-242l-127 -350h-45l127 350h-356l-127 -350h-45l127 350h-258l14 41h260l146 404h-246l14 41h246l133 358h47l-133 -358h354l134 358h47zM590 795l-148 -404h357l145 404h-354z" />
<glyph unicode="$" horiz-adv-x="1038" d="M123 104l31 35q5 -5 14 -13.5t41 -29.5t68.5 -37.5t97 -30t125.5 -14.5l84 604q-64 20 -103.5 34.5t-90 40.5t-78.5 53.5t-48 69.5t-20 93q0 153 121 246.5t309 99.5l31 211h40l-30 -211q74 -1 138 -12.5t102.5 -27.5t66.5 -31.5t40 -25.5l11 -11l-31 -37q-4 4 -12 11 t-37 24.5t-64 31t-94 25t-126 12.5l-78 -563q65 -21 105.5 -36.5t93 -43.5t82 -57.5t50.5 -75.5t21 -102q0 -74 -26.5 -137t-79.5 -113t-140.5 -79.5t-201.5 -33.5l-27 -192h-41l27 192q-71 1 -135.5 15t-105.5 33t-72 38t-45 32zM940 330q0 58 -24.5 103t-73.5 77.5t-97 53 t-120 42.5l-84 -592q199 7 299 92t100 224zM287 918q0 -43 17.5 -78.5t42.5 -59.5t69 -47t80.5 -37t93.5 -32l78 548q-103 -4 -187.5 -37.5t-139 -100.5t-54.5 -156z" />
<glyph unicode="%" horiz-adv-x="1316" d="M504 1255q99 0 152 -70.5t53 -178.5q0 -90 -34.5 -170t-101.5 -131.5t-153 -51.5q-97 0 -150 72.5t-53 179.5q0 141 80 245.5t207 104.5zM498 1214q-105 0 -170.5 -90.5t-65.5 -214.5q0 -92 42.5 -153.5t121.5 -61.5q106 0 172 91.5t66 213.5q0 94 -42.5 154.5 t-123.5 60.5zM1065 586q99 0 152 -71t53 -179q0 -90 -34.5 -170t-101.5 -131t-153 -51q-97 0 -150 72.5t-53 179.5q0 141 80 245.5t207 104.5zM1059 545q-105 0 -170.5 -90.5t-65.5 -214.5q0 -92 42.5 -153.5t121.5 -61.5q106 0 173 92t67 213q0 94 -43.5 154.5t-124.5 60.5 zM1300 1229h54l-1147 -1229h-53z" />
<glyph unicode="&#x26;" d="M1137 625l39 -4q-14 -105 -69 -223.5t-142 -213.5l153 -184h-53l-129 152q-179 -179 -418 -179q-169 0 -270 80.5t-101 214.5q0 45 11 86t27.5 73t45 63t55 53t67 47t71.5 41.5t76 38.5q-69 83 -102 144.5t-33 137.5q0 133 91 218t226 85q107 0 171.5 -63t64.5 -166 q0 -41 -11.5 -78t-27 -64.5t-46.5 -57t-54.5 -48t-69 -44.5t-71 -39t-77.5 -38l377 -446q82 91 134 203t65 211zM522 12q221 0 389 168l-387 461q-60 -30 -101 -53t-89 -58t-76.5 -69.5t-48 -82.5t-19.5 -102q0 -116 93 -190t239 -74zM408 954q0 -66 27.5 -122.5 t90.5 -131.5l11 -12q57 27 91.5 45t79 44t70 49.5t50 54t35.5 66t11 77.5q0 87 -53.5 140t-146.5 53q-111 0 -188.5 -73.5t-77.5 -189.5z" />
<glyph unicode="'" horiz-adv-x="321" d="M418 1401l-127 -428h-25l88 428h64z" />
<glyph unicode="(" horiz-adv-x="552" d="M211 446q0 -428 287 -692l-25 -30q-64 62 -89 91q-216 252 -216 627q0 128 24 247t57.5 206.5t88 172t96.5 135.5t103.5 106.5t88.5 75.5t70 50q15 11 21 15l14 -31q-4 -3 -14 -10q-36 -26 -62.5 -46t-83.5 -72t-99 -103t-94.5 -133t-86 -167.5t-57 -201.5t-23.5 -240z " />
<glyph unicode=")" horiz-adv-x="552" d="M506 729q0 104 -17 198t-47 166t-59.5 126.5t-67.5 99t-56 63t-40 37.5l25 31q69 -64 102 -104q205 -246 205 -611q0 -129 -23.5 -248t-58.5 -207.5t-88 -172t-98 -137t-102.5 -106t-89 -76t-69.5 -50.5q-15 -10 -20 -14l-16 30q100 71 156 123q293 271 351 666 q13 91 13 186z" />
<glyph unicode="*" horiz-adv-x="823" d="M326 877l217 231l-271 72l33 73l252 -114l18 295h76l-63 -295l282 114l11 -73l-285 -70l149 -233l-67 -46l-111 261l-186 -261z" />
<glyph unicode="+" horiz-adv-x="935" d="M631 991l-49 -352h336l-7 -41h-336l-49 -346h-43l49 346h-339l6 41h340l49 352h43z" />
<glyph unicode="," horiz-adv-x="393" d="M205 -16h-6q-22 0 -35.5 14t-13.5 37q0 24 15.5 39.5t41.5 15.5q21 0 35 -14.5t14 -38.5q0 -92 -58.5 -155.5t-166.5 -88.5l-2 37q72 11 120.5 57t55.5 93v4z" />
<glyph unicode="-" horiz-adv-x="821" d="M201 451l6 41h547l-6 -41h-547z" />
<glyph unicode="." horiz-adv-x="380" d="M188 -16q-20 0 -33.5 14t-13.5 33q0 23 19 41t43 18q20 0 32.5 -14t12.5 -33q0 -23 -18.5 -41t-41.5 -18z" />
<glyph unicode="/" horiz-adv-x="1056" d="M59 -227h-45l1174 1831h45z" />
<glyph unicode="0" horiz-adv-x="1173" d="M584 -29q-126 0 -216.5 69t-135 185.5t-44.5 266.5q0 209 70.5 382.5t203 277t302.5 103.5q126 0 216 -68.5t133.5 -184.5t43.5 -269q0 -208 -70.5 -381t-202.5 -277t-300 -104zM590 12q124 0 225.5 61.5t165.5 163.5t98.5 229t34.5 263q0 102 -21 188.5t-62.5 153.5 t-111 105t-159.5 38q-101 0 -187.5 -40.5t-148.5 -109.5t-106 -161t-65.5 -196t-21.5 -213q0 -100 21.5 -185.5t64 -152.5t112.5 -105.5t161 -38.5z" />
<glyph unicode="1" horiz-adv-x="518" d="M190 1188l7 41h333l-174 -1229h-43l168 1188h-291z" />
<glyph unicode="2" horiz-adv-x="970" d="M100 0l6 39l648 559q107 92 144.5 171.5t37.5 178.5q0 118 -79 192t-210 74q-62 0 -124 -17t-105 -41t-77.5 -48.5t-51.5 -41.5l-17 -17l-24 30l19 19t53.5 42.5t85.5 53.5t111.5 42t135.5 19q152 0 239 -82t87 -217q0 -111 -43 -198.5t-168 -196.5l-606 -522h715l-7 -39 h-770z" />
<glyph unicode="3" horiz-adv-x="970" d="M580 637h-166l6 35l545 518h-684l6 39h743l-4 -33l-559 -524h117q153 0 243.5 -74t90.5 -215q0 -174 -128 -288.5t-319 -114.5q-72 0 -134.5 16t-100.5 38.5t-65.5 45.5t-38.5 39l-11 16l33 29q3 -6 10.5 -16t35 -35t61 -44t91.5 -35t125 -16q173 0 285 103t112 258 q0 123 -77 190.5t-217 67.5z" />
<glyph unicode="4" horiz-adv-x="1040" d="M96 324l4 32l820 873h38l-120 -864h186l-6 -41h-187l-45 -324h-43l45 324h-692zM160 367v-2h635l110 788l-735 -778z" />
<glyph unicode="5" horiz-adv-x="964" d="M987 1188h-606l-88 -520q133 39 285 39q153 0 248.5 -84.5t95.5 -227.5q0 -101 -38 -183t-102 -133.5t-146.5 -78.5t-174.5 -27q-67 0 -126.5 16t-96.5 38.5t-64.5 45t-39.5 38.5l-11 16l33 29q4 -6 11.5 -15.5t35 -34t60.5 -43t88 -34t116 -15.5q179 0 294.5 100.5 t115.5 276.5q0 127 -85 202t-219 75q-87 0 -165 -12.5t-113 -25.5l-35 -12l-14 13l100 598h647z" />
<glyph unicode="6" horiz-adv-x="1056" d="M735 1214q-71 0 -140.5 -27t-134.5 -86.5t-115.5 -145.5t-82.5 -214t-35 -282q54 115 174.5 190.5t264.5 75.5q164 0 258 -95t94 -235q0 -172 -129 -298t-320 -126q-183 0 -283 119.5t-100 360.5q0 117 17 220.5t47 183.5t71.5 146.5t90 113t104 78.5t112 47t113.5 15 q72 0 132 -18t95 -44t60 -52t34 -44l9 -18l-35 -28q-3 7 -9.5 18t-32 39t-57 49.5t-86 39t-116.5 17.5zM659 682q-157 0 -281.5 -97t-146.5 -233q35 -340 347 -340q105 0 196.5 49t146 136t54.5 190q0 128 -83 211.5t-233 83.5z" />
<glyph unicode="7" horiz-adv-x="847" d="M221 1188l4 41h768l-4 -39l-729 -1190h-51l731 1188h-719z" />
<glyph unicode="8" horiz-adv-x="1030" d="M510 -29q-157 0 -255.5 89t-98.5 221q0 129 86.5 224t220.5 132q-92 32 -144.5 102.5t-52.5 161.5q0 150 121.5 252t302.5 102q150 0 241 -79.5t91 -202.5q0 -116 -77.5 -207.5t-201.5 -128.5q99 -33 159.5 -108t60.5 -175q0 -157 -133 -270t-320 -113zM918 350 q0 118 -91.5 192t-226.5 74h-16q-155 -5 -269 -98t-114 -231q0 -116 89 -195.5t226 -79.5q164 0 283 100t119 238zM606 657h15q150 4 252 94.5t102 215.5q0 106 -80 176.5t-211 70.5q-157 0 -264 -90t-107 -219q0 -107 80.5 -177.5t212.5 -70.5z" />
<glyph unicode="9" horiz-adv-x="1064" d="M489 12q106 0 197.5 44t164 132t114 235t41.5 337v18q-52 -120 -172.5 -198t-268.5 -78q-159 0 -254.5 94t-95.5 238q0 112 57.5 208t163.5 154.5t236 58.5q180 0 278.5 -124t98.5 -369q0 -164 -31 -298t-84 -224.5t-125.5 -152t-154 -89t-171.5 -27.5q-62 0 -118 15 t-91 36.5t-61.5 43t-37.5 36.5l-11 15l33 28q4 -5 11 -14t33.5 -32t57.5 -40.5t82.5 -32t107.5 -14.5zM571 545q154 0 280 96.5t148 230.5q-17 175 -105.5 258.5t-227.5 83.5q-168 0 -287 -108t-119 -264q0 -138 85 -217.5t226 -79.5z" />
<glyph unicode=":" horiz-adv-x="380" d="M143 47q0 23 19 41t43 18q20 0 33.5 -14t13.5 -33q0 -23 -19 -41t-43 -18q-20 0 -33.5 14t-13.5 33zM250 801q0 23 19 41t42 18q20 0 33.5 -14t13.5 -33q0 -23 -19 -41t-42 -18q-20 0 -33.5 14t-13.5 33z" />
<glyph unicode=";" horiz-adv-x="483" d="M266 0h-6q-21 0 -35 14t-14 37q0 24 15.5 39.5t41.5 15.5q21 0 35 -14.5t14 -38.5q0 -92 -58 -155t-167 -88l-2 36q72 11 120.5 57t55.5 93v4zM317 801q0 23 19 41t43 18q20 0 33.5 -14t13.5 -33q0 -23 -19 -41t-42 -18q-20 0 -34 14t-14 33z" />
<glyph unicode="&#x3c;" horiz-adv-x="770" d="M176 563l6 49l590 422l-8 -57l-547 -389l438 -389l-8 -58z" />
<glyph unicode="=" horiz-adv-x="919" d="M250 770l6 41h637l-6 -41h-637zM195 379l6 41h637l-7 -41h-636z" />
<glyph unicode="&#x3e;" horiz-adv-x="770" d="M760 612l-6 -49l-590 -422l8 58l549 389l-440 389l8 57z" />
<glyph unicode="?" horiz-adv-x="831" d="M248 1114l-23 33q5 4 14 10t40 22t66 28t90 22t114 10q159 0 249.5 -71t90.5 -197q0 -70 -21 -127.5t-55.5 -96.5t-76 -72t-85 -61t-80.5 -56.5t-64 -66t-34 -81.5l-24 -158h-31l26 166q7 47 33.5 86.5t62 69t77 57.5t81.5 59.5t73 68.5t53 90t20 118q0 107 -77 169 t-220 62q-53 0 -103.5 -8.5t-84.5 -21t-60 -25t-39 -21.5zM348 12q0 23 19.5 41.5t42.5 18.5q20 0 33.5 -14t13.5 -33q0 -23 -19.5 -41.5t-42.5 -18.5q-20 0 -33.5 14t-13.5 33z" />
<glyph unicode="@" horiz-adv-x="2031" d="M1522 104q-97 0 -160.5 59t-63.5 154l2 41h-6q-154 -231 -372 -231q-126 0 -207.5 87.5t-81.5 231.5q0 121 43 228t114 180t164.5 115.5t192.5 42.5q117 0 182 -53t84 -142l60 180h30l-143 -536q-21 -82 -21 -131q0 -85 55 -137t138 -52q103 0 190 51t144 135t89 191.5 t32 222.5q0 148 -54.5 279.5t-151.5 228t-238 153t-306 56.5q-214 0 -406.5 -82t-328.5 -217.5t-215.5 -316t-79.5 -373.5q0 -126 34 -243t101.5 -215t159.5 -171t215.5 -114t263.5 -41q80 0 157 12t129.5 29t93 34t59.5 29l20 12l18 -32q-8 -5 -22 -13.5t-62 -30t-100 -38 t-133.5 -30t-165.5 -13.5q-147 0 -276 43t-225.5 120t-166.5 179.5t-105.5 225t-35.5 253.5q0 201 83.5 389.5t225.5 330.5t343.5 228t424.5 86q173 0 321 -59.5t249 -161.5t158 -240t57 -293q0 -125 -36 -241t-100 -205t-160.5 -142t-209.5 -53zM930 168q94 0 181 58.5 t144.5 146.5t92 187t34.5 183q0 107 -61.5 167.5t-179.5 60.5q-122 0 -228.5 -65.5t-172.5 -186t-66 -268.5q0 -131 69 -207t187 -76z" />
<glyph unicode="A" d="M784 1229l330 -1229h-45l-98 365h-666l-199 -365h-45l674 1229h49zM754 1186l-426 -780h633z" />
<glyph unicode="B" horiz-adv-x="1212" d="M1153 360q0 -173 -126 -266.5t-327 -93.5h-505l172 1229h471q166 0 259 -73t93 -210q0 -126 -67 -207t-185 -118l-2 -5q99 -26 158 -92t59 -164zM1110 356q0 110 -88 174t-229 64h-471l-78 -553h465q178 0 289.5 82t111.5 233zM1145 940q0 123 -84 185.5t-225 62.5h-430 l-78 -553h430q183 0 285 82t102 223z" />
<glyph unicode="C" horiz-adv-x="1181" d="M1104 174l18 -33q-6 -7 -18.5 -18.5t-53.5 -40.5t-86.5 -51.5t-117.5 -41t-146 -18.5q-154 0 -273 72.5t-183 198.5t-64 284q0 150 56.5 285.5t151 232.5t223.5 154t270 57q74 0 140.5 -17t107.5 -40.5t71.5 -47.5t43.5 -41l13 -17l-30 -33q-4 6 -12.5 16.5t-40 37.5 t-68.5 47t-99.5 37t-132.5 17q-133 0 -254.5 -56.5t-207.5 -150t-136.5 -217.5t-50.5 -255q0 -106 33.5 -201t94.5 -166.5t153 -113.5t201 -42q70 0 136.5 16.5t111.5 40.5t80.5 48t52.5 41z" />
<glyph unicode="D" horiz-adv-x="1282" d="M1272 700q0 -161 -59.5 -295t-161 -221.5t-234.5 -135.5t-282 -48h-340l172 1229h340q164 0 291 -61.5t200.5 -182.5t73.5 -285zM705 1188h-299l-162 -1147h299q136 0 259.5 46t218 128t150.5 205.5t56 269.5q0 227 -147 362.5t-375 135.5z" />
<glyph unicode="E" horiz-adv-x="1099" d="M1004 641l-7 -41h-675l-78 -559h770l-6 -41h-813l172 1229h813l-4 -41h-770l-78 -547h676z" />
<glyph unicode="F" horiz-adv-x="1064" d="M1001 641l-6 -41h-673l-84 -600h-43l172 1229h813l-4 -41h-770l-78 -547h673z" />
<glyph unicode="G" horiz-adv-x="1318" d="M748 600l6 41h569l-8 -59q-39 -285 -204.5 -448t-408.5 -163q-239 0 -379.5 154.5t-140.5 394.5q0 203 91 371t252 266t358 98q81 0 152.5 -17t115.5 -41.5t77 -48.5t46 -41l14 -17l-31 -33q-5 6 -14 17t-42.5 38t-73.5 47.5t-107.5 37.5t-142.5 17q-145 0 -269.5 -57.5 t-207 -153t-129 -219.5t-46.5 -258q0 -105 31.5 -197t90.5 -163t152.5 -112.5t209.5 -41.5q219 0 371.5 143.5t187.5 397.5l6 47h-526z" />
<glyph unicode="H" horiz-adv-x="1298" d="M1276 1229l-172 -1229h-43l84 600h-823l-84 -600h-43l172 1229h43l-82 -588h823l82 588h43z" />
<glyph unicode="I" horiz-adv-x="432" d="M410 1229l-172 -1229h-43l172 1229h43z" />
<glyph unicode="J" horiz-adv-x="835" d="M829 1229l-120 -858q-58 -400 -410 -400q-45 0 -86.5 9t-68.5 22t-47 26t-29 22l-9 9l27 33l8.5 -8.5t25.5 -19.5t43 -24.5t60 -19t78 -8.5q148 0 243 88t122 275l120 854h43z" />
<glyph unicode="K" horiz-adv-x="1105" d="M410 1229l-109 -780l885 780h41l-2 -15l-553 -487l389 -721l-2 -6h-39l-381 696l-346 -305l-55 -391h-43l172 1229h43z" />
<glyph unicode="L" horiz-adv-x="978" d="M938 0h-743l172 1229h43l-166 -1188h700z" />
<glyph unicode="M" horiz-adv-x="1478" d="M1239 0l164 1171l-569 -641h-41l-390 644l-165 -1174h-43l172 1229h57l397 -651l578 651h57l-172 -1229h-45z" />
<glyph unicode="N" horiz-adv-x="1359" d="M1337 1229l-172 -1229h-57l-705 1178l-165 -1178h-43l172 1229h59l704 -1176l164 1176h43z" />
<glyph unicode="O" horiz-adv-x="1392" d="M692 -29q-234 0 -372 154.5t-138 394.5q0 203 89.5 371t248 266t352.5 98q156 0 273 -71.5t177 -195.5t60 -283q0 -202 -89 -370t-247.5 -266t-353.5 -98zM698 12q143 0 265 57.5t203.5 153t127 219t45.5 256.5q0 107 -30.5 199.5t-88 163.5t-149 112t-205.5 41 q-142 0 -264 -57.5t-203.5 -153t-127.5 -219.5t-46 -258q0 -106 30.5 -198.5t88.5 -163t149.5 -111.5t204.5 -41z" />
<glyph unicode="P" horiz-adv-x="1155" d="M195 0l172 1229h432q191 0 297 -97t106 -251q0 -194 -142 -325.5t-374 -131.5h-389l-59 -424h-43zM1159 874q0 140 -98.5 227t-263.5 87h-391l-103 -723h391q201 0 333 116t132 293z" />
<glyph unicode="Q" horiz-adv-x="1392" d="M692 -29q-234 0 -372 154.5t-138 394.5q0 203 89.5 371t248 266t352.5 98q156 0 273 -71.5t177 -195.5t60 -283q0 -256 -140 -450t-368 -257l117 -248h-49l-111 238q-77 -17 -139 -17zM698 12q143 0 265 57.5t203.5 153t127 219t45.5 256.5q0 107 -30.5 199.5t-88 163.5 t-149 112t-205.5 41q-142 0 -264 -57.5t-203.5 -153t-127.5 -219.5t-46 -258q0 -106 30.5 -198.5t88.5 -163t149.5 -111.5t204.5 -41z" />
<glyph unicode="R" horiz-adv-x="1198" d="M367 1229h432q194 0 299.5 -90.5t105.5 -249.5q0 -177 -107.5 -292t-281.5 -144v-4l285 -441l-2 -8h-41l-289 444h-469l-61 -444h-43zM1159 881q0 146 -96.5 226.5t-265.5 80.5h-391l-101 -703h420q118 0 215.5 45.5t158 137t60.5 213.5z" />
<glyph unicode="S" horiz-adv-x="1028" d="M117 104l30 35q5 -5 14 -13.5t42 -30t70.5 -38t99.5 -30t129 -13.5q215 0 323.5 86t108.5 230q0 49 -19 89t-47 67t-75.5 52t-87.5 40t-101 34q-42 13 -61 19t-58 20t-57.5 23t-50 24.5t-47.5 29.5t-37 34.5t-30.5 41.5t-17 48t-7.5 57q0 159 129.5 252.5t326.5 93.5 q77 0 143.5 -11t107 -27t69.5 -32t41 -27l12 -11l-31 -37q-4 4 -12.5 11t-39 25t-67 32t-98.5 25t-131 11q-108 0 -198.5 -32.5t-149.5 -101t-59 -162.5q0 -33 10 -61.5t25 -49.5t42.5 -41.5t51 -34t62.5 -29t66 -24.5t72 -23q49 -15 78.5 -25t73 -28t70 -34t57.5 -40.5 t48 -51.5t28.5 -62.5t11.5 -77.5q0 -77 -28 -141t-85 -114.5t-151 -79t-217 -28.5q-72 0 -137.5 13.5t-108 32.5t-74 38.5t-45.5 32.5z" />
<glyph unicode="T" horiz-adv-x="1017" d="M1143 1229l-6 -41h-439l-168 -1188h-43l168 1188h-438l6 41h920z" />
<glyph unicode="U" horiz-adv-x="1277" d="M635 -27q-221 0 -322 142t-67 389l102 725h43l-102 -725q-31 -228 58 -359t294 -131t330.5 131t156.5 359l103 725h43l-103 -725q-34 -247 -174.5 -389t-361.5 -142z" />
<glyph unicode="V" d="M563 0l-330 1229h46l315 -1184l647 1184h45l-674 -1229h-49z" />
<glyph unicode="W" horiz-adv-x="1576" d="M1130 0l-180 1153l-504 -1153h-45l-165 1229h45l153 -1151l504 1151h45l178 -1151l479 1151h46l-510 -1229h-46z" />
<glyph unicode="X" horiz-adv-x="1015" d="M1124 1229l-503 -598l354 -631h-51l-295 532l-37 72l-53 -72l-447 -532h-49l526 631l-333 598h51l286 -514l27 -58l43 58l430 514h51z" />
<glyph unicode="Y" horiz-adv-x="1112" d="M672 569l493 660h52l-574 -754l-65 -475h-43l65 475l-360 754h51l311 -660l25 -59h4z" />
<glyph unicode="Z" horiz-adv-x="1040" d="M68 0l4 35l1018 1153h-848l4 41h909l-4 -35l-1018 -1153h830l-7 -41h-888z" />
<glyph unicode="[" horiz-adv-x="534" d="M111 -266l239 1700h357l-7 -41h-315l-227 -1618h315l-6 -41h-356z" />
<glyph unicode="\" horiz-adv-x="653" d="M492 -262l-183 1898h43l185 -1898h-45z" />
<glyph unicode="]" horiz-adv-x="534" d="M-6 -266l6 41h315l228 1618h-316l6 41h357l-240 -1700h-356z" />
<glyph unicode="^" horiz-adv-x="784" d="M758 1018l-180 297l-263 -297h-43l291 350h45l191 -350h-41z" />
<glyph unicode="_" horiz-adv-x="1075" d="M68 -123l6 41h905l-6 -41h-905z" />
<glyph unicode="`" horiz-adv-x="495" d="M483 1018l-112 282l65 9l78 -291h-31z" />
<glyph unicode="a" horiz-adv-x="1075" d="M963 631h2l41 229h30l-121 -860h-30l20 215h-2q-4 -10 -13 -25.5t-43 -56t-75.5 -71.5t-113.5 -56.5t-154 -25.5q-153 0 -251.5 107.5t-98.5 279.5q0 110 39.5 207t105 163.5t152.5 105t180 38.5q59 0 109 -14t83 -36t59 -48.5t41 -53t24.5 -48.5t12.5 -36zM942 492 q0 168 -88.5 259t-226.5 91q-83 0 -161 -35.5t-137.5 -97t-95.5 -150t-36 -188.5q0 -155 90 -254t225 -99q84 0 161.5 34t137 94.5t95.5 150.5t36 195z" />
<glyph unicode="b" horiz-adv-x="1077" d="M162 0l174 1239h41l-84 -594h2q4 10 13 25.5t43 56.5t75.5 72t113.5 56.5t154 25.5q153 0 251.5 -107.5t98.5 -279.5q0 -110 -40 -207.5t-105.5 -163.5t-151.5 -104.5t-176 -38.5q-61 0 -112 14t-84 36t-59.5 48.5t-40.5 53.5t-23 49t-12 36l-2 14h-5l-40 -231h-31z M256 369q0 -162 86 -256.5t233 -94.5q83 0 160.5 35.5t136 97t94 150t35.5 188.5q0 155 -89 254t-220 99q-83 0 -161 -32.5t-139.5 -92t-98.5 -150t-37 -198.5z" />
<glyph unicode="c" horiz-adv-x="870" d="M512 -20q-158 0 -259 102t-101 276q0 114 40 213t107.5 166.5t155.5 105.5t184 38q46 0 88.5 -8t70.5 -19.5t49.5 -23t31.5 -19.5l10 -8l-23 -35q-10 8 -28 20.5t-79 33t-128 20.5q-79 0 -157 -34t-140 -94.5t-100.5 -151t-38.5 -195.5q0 -159 93 -254t228 -95 q67 0 131 18.5t95 37.5l30 18l12 -35q-12 -9 -34.5 -21.5t-93.5 -34t-144 -21.5z" />
<glyph unicode="d" horiz-adv-x="1077" d="M961 629h2l86 610h41l-175 -1239h-30l20 215h-2q-4 -10 -13 -25.5t-43 -56t-75.5 -71.5t-113.5 -56.5t-154 -25.5q-153 0 -251.5 107.5t-98.5 279.5q0 110 39.5 207t105 163.5t152.5 105t180 38.5q60 0 110.5 -14t83.5 -36t59 -49t40 -54t23 -49t11 -36zM942 492 q0 165 -87 257.5t-232 92.5q-83 0 -160.5 -35.5t-136 -97t-94 -150t-35.5 -188.5q0 -155 89 -254t220 -99q83 0 161 33t139.5 92t98.5 150t37 199z" />
<glyph unicode="e" horiz-adv-x="942" d="M799 106l16 -34q-5 -4 -14.5 -10t-41.5 -22t-66 -28t-85.5 -22t-103.5 -10q-157 0 -253.5 101t-96.5 273q0 121 37 222t100 167t145.5 102t173.5 36q173 0 257 -112.5t53 -301.5l-2 -12h-711l-4 -31q-26 -185 63.5 -295.5t243.5 -110.5q50 0 98 9t81 22t59 26t38 22z M606 842q-130 0 -239.5 -91.5t-149.5 -254.5h664q10 91 -14.5 168t-92 127.5t-168.5 50.5z" />
<glyph unicode="f" horiz-adv-x="546" d="M158 860h172l14 94q20 139 103.5 217t199.5 78q36 0 68 -6t45 -12l14 -6l-20 -37q-33 22 -115 22q-93 0 -163 -63.5t-91 -192.5l-14 -94h270l-6 -39h-270l-115 -821h-41l115 821h-172z" />
<glyph unicode="g" horiz-adv-x="1077" d="M1036 860l-112 -807q-27 -190 -146 -305t-309 -115q-55 0 -105.5 11t-82.5 26t-56.5 30.5t-35.5 26.5l-11 11l31 29l10.5 -10.5t31 -22.5t52.5 -28.5t74 -23t96 -10.5q172 0 279.5 108t130.5 273l22 162h-2q-2 -5 -6 -13.5t-20.5 -33t-36 -46.5t-53.5 -49t-72.5 -46.5 t-94 -33t-116.5 -13.5q-153 0 -251.5 107.5t-98.5 279.5q0 110 39.5 207t105 163.5t152.5 105t180 38.5q59 0 109 -13.5t83 -35.5t59 -48.5t41 -53t24.5 -48.5t12.5 -36l3 -13h2l41 227h30zM942 492q0 164 -86.5 256t-230.5 92q-172 0 -300 -134.5t-128 -334.5 q0 -155 91 -254t226 -99q81 0 157 33t136.5 92t97.5 150t37 199z" />
<glyph unicode="h" horiz-adv-x="1034" d="M162 0l174 1239h41l-80 -563h2l21 35q84 117 220 155q55 15 115 15q167 0 245 -114t52 -294l-65 -473h-41l65 471q23 166 -43.5 268.5t-220.5 102.5q-66 0 -124 -21t-99 -53.5t-72.5 -74t-49 -81t-23.5 -75.5l-76 -537h-41z" />
<glyph unicode="i" horiz-adv-x="372" d="M348 1147q-19 0 -30 11t-11 28q0 23 15.5 38t37.5 15q18 0 29.5 -11.5t11.5 -29.5q0 -23 -15.5 -37t-37.5 -14zM166 0l121 860h41l-121 -860h-41z" />
<glyph unicode="j" horiz-adv-x="372" d="M-45 -319l6 36h25q73 0 112.5 41.5t51.5 128.5l137 973h41l-138 -973q-15 -109 -65.5 -157.5t-147.5 -48.5h-22zM348 1147q-19 0 -31 11t-12 28q0 23 16.5 38t38.5 15q18 0 29.5 -11.5t11.5 -29.5q0 -23 -15.5 -37t-37.5 -14z" />
<glyph unicode="k" horiz-adv-x="854" d="M864 860h62l-473 -358l368 -502h-49l-350 479l-170 -131l-49 -348h-41l174 1239h41l-117 -836z" />
<glyph unicode="l" horiz-adv-x="380" d="M170 0l174 1239h41l-174 -1239h-41z" />
<glyph unicode="m" horiz-adv-x="1716" d="M162 0l121 860h30l-14 -180h2q6 15 38 53q114 137 290 147q13 1 26 1q133 0 213.5 -66t94.5 -176h8l15 36q59 115 174 169q80 37 179 37q167 0 244 -113.5t51 -294.5l-65 -473h-41l65 471q15 108 -7 190t-87 131.5t-168 49.5q-66 0 -124.5 -23.5t-100 -60.5t-74 -84 t-51 -91.5t-25.5 -84.5l-69 -498h-41l74 522q20 142 -49.5 231t-223.5 89q-66 0 -124 -21t-99 -53.5t-72.5 -74t-49 -81t-23.5 -75.5l-76 -537h-41z" />
<glyph unicode="n" horiz-adv-x="1034" d="M162 0l121 860h30l-14 -180h2q23 46 77 95q115 106 277 106q167 0 245 -114t52 -294l-65 -473h-41l65 471q23 166 -43.5 268.5t-220.5 102.5q-66 0 -124 -21t-99 -53.5t-72.5 -74t-49 -81t-23.5 -75.5l-76 -537h-41z" />
<glyph unicode="o" horiz-adv-x="1030" d="M997 492q0 -114 -40 -211.5t-107 -162.5t-155 -101.5t-183 -36.5q-159 0 -259.5 103t-100.5 277q0 113 40 211.5t107 165.5t155.5 105.5t184.5 38.5q157 0 257.5 -107t100.5 -282zM518 18q81 0 158 32.5t139 90.5t99.5 147.5t37.5 194.5q0 161 -92 260t-227 99 q-80 0 -158 -34t-140.5 -94.5t-101 -151t-38.5 -195.5q0 -159 93 -254t230 -95z" />
<glyph unicode="p" horiz-adv-x="1077" d="M240 231h-4l-78 -550h-41l166 1179h30l-20 -215h2q4 10 13 25.5t43.5 56.5t76 72t113.5 56.5t155 25.5q152 0 250 -107.5t98 -279.5q0 -110 -39.5 -207t-105 -163.5t-152 -105t-178.5 -38.5q-60 0 -111 14t-83.5 36t-58.5 48.5t-39.5 53.5t-22.5 49t-12 36zM256 369 q0 -169 90.5 -260t228.5 -91q83 0 160.5 35.5t136 97t94 150t35.5 188.5q0 156 -86.5 254.5t-222.5 98.5q-83 0 -160.5 -33t-139.5 -92t-99 -149.5t-37 -198.5z" />
<glyph unicode="q" horiz-adv-x="1077" d="M1036 860l-166 -1179h-41l76 534h-2q-4 -10 -13 -25.5t-43 -56t-75.5 -71.5t-113.5 -56.5t-154 -25.5q-153 0 -251.5 107.5t-98.5 279.5q0 110 39.5 207t105 163.5t152.5 105t180 38.5q59 0 109 -13.5t83 -35.5t59 -48.5t41 -53t24.5 -48.5t12.5 -36l3 -13h2l41 227h30z M942 492q0 164 -87 257t-228 93q-83 0 -161 -35.5t-137.5 -97t-95.5 -150t-36 -188.5q0 -155 90 -254t225 -99q81 0 158 33t137.5 92t97.5 150t37 199z" />
<glyph unicode="r" horiz-adv-x="524" d="M623 860l-7 -39h-28q-125 0 -207 -86.5t-105 -212.5l-73 -522h-41l121 860h30l-14 -180h2q5 16 34 53q102 126 259 127h29z" />
<glyph unicode="s" horiz-adv-x="802" d="M104 59l23 35q11 -8 32.5 -20.5t91 -33t144.5 -20.5q152 0 232 63.5t80 158.5q0 34 -13 60.5t-32 43.5t-53 31.5t-64 22.5t-78 18q-44 10 -70.5 17t-64 19t-60 26.5t-44.5 35t-32 48.5t-10 63q0 117 88 185.5t250 68.5q80 0 148 -17t96 -34l27 -17l-23 -37q-3 3 -10 7.5 t-30.5 15.5t-50.5 20t-71 16t-92 7q-140 0 -214.5 -54t-74.5 -155q0 -25 8.5 -45.5t18.5 -35t34.5 -28t39.5 -21t51 -17t52 -13t59 -12.5q60 -13 99.5 -26t79.5 -36.5t59.5 -61t19.5 -89.5q0 -114 -94.5 -190t-256.5 -76q-57 0 -108.5 8t-84 19.5t-57 22.5t-35.5 19z" />
<glyph unicode="t" horiz-adv-x="567" d="M154 860h172l39 262h38l-36 -262h270l-6 -39h-271l-88 -622q-24 -181 136 -181q35 0 67.5 9t48.5 17l15 9l10 -35q-6 -4 -17.5 -10.5t-51 -17t-83.5 -10.5q-94 0 -137 56.5t-29 153.5l88 631h-172z" />
<glyph unicode="u" horiz-adv-x="1021" d="M866 332l74 528h41l-121 -860h-31l15 182h-2l-22 -35q-85 -116 -222 -153q-53 -14 -111 -14q-166 0 -238 112.5t-46 294.5l65 473h41l-65 -471q-15 -109 4.5 -190.5t82 -131t165.5 -49.5q84 0 155 33t114 83t68.5 101.5t32.5 96.5z" />
<glyph unicode="v" horiz-adv-x="923" d="M449 0l-275 860h43l242 -768q8 -28 8 -45h4q3 13 21 45l460 768h43l-520 -860h-26z" />
<glyph unicode="w" horiz-adv-x="1308" d="M360 0l-178 860h43l156 -768q6 -34 6 -45h4l19 45l342 768h49l123 -768q6 -42 6 -45h4q2 7 20 45l371 768h43l-418 -860h-49l-127 784q-2 12 -2 29h-4l-12 -29l-348 -784h-48z" />
<glyph unicode="x" horiz-adv-x="825" d="M43 0l406 457l-248 403h45l231 -379h6l332 379h49l-360 -401l278 -459h-43l-262 432h-6l-381 -432h-47z" />
<glyph unicode="y" horiz-adv-x="1015" d="M860 332l74 528h41l-121 -858q-25 -175 -133.5 -272t-286.5 -97q-56 0 -106.5 11t-82 26.5t-55 31.5t-33.5 27l-10 11l31 29l10.5 -10.5t31 -23t52.5 -29.5t73.5 -23.5t94.5 -10.5q158 0 253.5 86.5t119.5 243.5l27 180h-4q-4 -8 -12 -21.5t-39 -48.5t-68 -61.5 t-101 -48.5t-137 -22q-166 0 -238 112.5t-46 294.5l65 473h43l-65 -471q-23 -168 37 -268.5t212 -100.5q68 0 128 22t101.5 56t73.5 76.5t48.5 82.5t21.5 75z" />
<glyph unicode="z" horiz-adv-x="839" d="M88 37l733 784h-624l6 39h676l-7 -37l-729 -784h621l-6 -39h-676z" />
<glyph unicode="{" horiz-adv-x="419" d="M152 621h16q50 0 94 48.5t55 129.5l70 504q11 74 45 113t100 48v-39q-47 -6 -70.5 -36.5t-33.5 -100.5l-68 -483q-23 -174 -124 -207l-3 -10q91 -33 68 -205l-70 -498q-9 -70 5.5 -100.5t60.5 -36.5l-12 -39q-63 9 -86.5 48.5t-12.5 113.5l74 518q11 81 -19.5 129.5 t-80.5 48.5h-17z" />
<glyph unicode="|" horiz-adv-x="335" d="M387 1407l-235 -1669h-41l235 1669h41z" />
<glyph unicode="}" horiz-adv-x="419" d="M428 621h16l-8 -54h-16q-50 0 -94.5 -48.5t-55.5 -129.5l-73 -518q-11 -74 -44.5 -113.5t-99.5 -48.5v39q48 6 71 36.5t32 100.5l71 498q23 172 125 205v10q-88 33 -65 207l67 483q9 71 -5 101t-60 36l12 39q63 -9 86 -48t12 -113l-71 -504q-11 -81 19.5 -129.5 t80.5 -48.5z" />
<glyph unicode="~" horiz-adv-x="890" d="M674 594q45 0 82 10t51 20l14 9l17 -27q-2 -2 -6 -5.5t-19.5 -13t-33.5 -16.5t-48 -12.5t-63 -5.5q-47 0 -136.5 28.5t-142.5 28.5q-45 0 -82.5 -10t-52.5 -20l-14 -9l-15 27q2 2 6 5.5t19.5 13t33.5 16.5t48 12.5t63 5.5q47 0 136.5 -28.5t142.5 -28.5z" />
<glyph unicode="&#xa1;" horiz-adv-x="331" d="M262 598l-125 -958h-43l144 958h24zM229 825q0 23 18.5 41.5t41.5 18.5q20 0 33.5 -14t13.5 -33q0 -23 -19.5 -41.5t-42.5 -18.5q-20 0 -32.5 14t-12.5 33z" />
<glyph unicode="&#xa2;" horiz-adv-x="890" d="M377 0l47 174q-111 31 -177.5 127.5t-66.5 235.5q0 113 40 211.5t107 165.5t155 105.5t184 39.5l45 170h41l-45 -172q62 -4 114.5 -23t74.5 -36l22 -17l-21 -35q-8 7 -24 17.5t-69 30.5t-110 24l-221 -815q35 -6 72 -6q67 0 131.5 18.5t95.5 36.5l31 18l10 -34 q-4 -3 -12.5 -8.5t-35.5 -19t-56.5 -23.5t-74.5 -18.5t-91 -8.5q-41 0 -82 6l-43 -164h-41zM225 545q0 -126 58 -213t153 -119l217 807q-79 -2 -155 -36.5t-137 -95t-98.5 -150.5t-37.5 -193z" />
<glyph unicode="&#xa3;" horiz-adv-x="1015" d="M885 41l-6 -41h-740l6 41q7 4 18.5 12.5t41 39t52.5 65.5t41.5 92t18.5 119q0 27 -2.5 60.5t-7 81t-6.5 69.5h-137l6 41h129q-4 54 -4 106q0 106 29 198t84.5 162.5t145.5 111t204 40.5q62 0 116.5 -14.5t87.5 -35.5t57 -41.5t34 -35.5l10 -14l-35 -29q-3 5 -10 14 t-31.5 31t-53.5 39t-78.5 31t-104.5 14q-135 0 -229.5 -63.5t-138.5 -168t-44 -239.5q0 -52 4 -106h528l-6 -41h-518q14 -168 14 -207q0 -200 -155 -332h680z" />
<glyph unicode="&#xa5;" horiz-adv-x="1114" d="M672 569l493 660h52l-551 -723h352l-6 -41h-371l-25 -180h371l-6 -41h-371l-32 -244h-43l32 244h-370l6 41h370l25 180h-371l6 41h353l-346 723h51l311 -660l25 -59h4z" />
<glyph unicode="&#xa6;" horiz-adv-x="337" d="M285 676h-43l98 702h43zM145 -313h-43l99 702h43z" />
<glyph unicode="&#xa7;" horiz-adv-x="1030" d="M111 78l32 37q5 -4 14 -11t43 -24.5t74 -30.5t106.5 -24t139.5 -11q200 0 297.5 65t97.5 165q0 76 -67 123t-254 106q-139 44 -192.5 84t-53.5 88q0 91 101 133q-193 78 -193 211q0 118 116.5 192t334.5 74q74 0 139.5 -9t106 -21.5t71 -25t42.5 -21.5l13 -9l-32 -36 q-4 3 -12.5 8.5t-39.5 19.5t-67.5 24.5t-98 19.5t-129.5 9q-196 0 -296.5 -60t-100.5 -161q0 -72 68 -122.5t215 -92.5q276 -79 276 -192q0 -84 -86 -133q99 -44 142 -92.5t43 -114.5q0 -53 -25 -100t-75.5 -86.5t-140 -63t-206.5 -23.5q-79 0 -150 11t-115 26t-77 30.5 t-47 26.5zM563 739q-29 7 -69 23q-20 -6 -39 -15.5t-39.5 -35.5t-20.5 -60q0 -39 47.5 -69.5t173.5 -69.5q76 -27 121 -45q80 45 80 115q0 44 -60 81.5t-194 75.5z" />
<glyph unicode="&#xa8;" horiz-adv-x="786" d="M342 1419q0 25 20.5 44.5t45.5 19.5q22 0 35.5 -14.5t13.5 -36.5q0 -25 -20.5 -44.5t-45.5 -19.5q-22 0 -35.5 14.5t-13.5 36.5zM606 1419q0 25 20.5 44.5t45.5 19.5q22 0 35.5 -14.5t13.5 -36.5q0 -25 -20.5 -44.5t-45.5 -19.5q-22 0 -35.5 14.5t-13.5 36.5z" />
<glyph unicode="&#xa9;" horiz-adv-x="1437" d="M893 1229q165 0 287.5 -73t183.5 -193.5t61 -270.5q0 -139 -52.5 -266t-144 -222t-224.5 -151.5t-285 -56.5q-124 0 -225.5 42t-168 114.5t-103 170t-36.5 209.5q0 139 53 266t145 222.5t225 152t284 56.5zM887 1188q-141 0 -264.5 -52.5t-208.5 -141.5t-134 -208 t-49 -249q0 -216 133 -358t361 -142q187 0 338.5 89t235 238t83.5 324q0 216 -133.5 358t-361.5 142zM1071 872l-29 -30q-2 3 -6.5 7.5t-20.5 16t-35.5 20.5t-52 16t-69.5 7q-147 0 -239.5 -98.5t-92.5 -237.5q0 -110 65.5 -182t182.5 -72q55 0 106.5 16.5t75.5 32.5l25 17 l18 -31q-3 -3 -9.5 -8t-28.5 -18t-47 -23t-64.5 -18t-81.5 -8q-151 0 -226.5 95.5t-54.5 239.5q19 142 123 239t254 97q43 0 80 -8t59 -19.5t38.5 -23t22.5 -19.5z" />
<glyph unicode="&#xaa;" horiz-adv-x="831" d="M207 733q0 108 87 176t224 68q189 0 248 -111l6 47q8 50 8 103q0 99 -52 150t-165 51q-59 0 -115.5 -14t-83.5 -28l-26 -14l-12 43q12 6 33.5 15t85 23.5t124.5 14.5q139 0 198.5 -61.5t59.5 -173.5q0 -40 -6 -80l-53 -381h-29l9 117h-5q-31 -52 -104 -92.5t-184 -40.5 q-114 0 -181 51t-67 137zM250 739q0 -72 57.5 -113.5t153.5 -41.5q114 0 202.5 63t88.5 137q0 67 -60 110.5t-174 43.5q-118 0 -193 -55.5t-75 -143.5z" />
<glyph unicode="&#xab;" horiz-adv-x="757" d="M162 410l4 34l252 320h43l-2 -14l-250 -318l-2 -6l162 -322l-2 -14h-43zM442 410l4 34l252 320h43l-2 -14l-250 -318l-2 -6l162 -322l-2 -14h-43z" />
<glyph unicode="&#xac;" horiz-adv-x="1150" d="M213 668l6 41h883l-101 -709h-40l94 668h-842z" />
<glyph unicode="&#xad;" horiz-adv-x="821" d="M201 451l6 41h547l-6 -41h-547z" />
<glyph unicode="&#xae;" horiz-adv-x="1165" d="M1165 840q0 -141 -68.5 -263t-193.5 -196t-278 -74q-187 0 -296.5 118.5t-109.5 293.5q0 141 68 262.5t193 195.5t278 74q188 0 297.5 -117.5t109.5 -293.5zM1120 836q0 162 -99 268t-269 106q-104 0 -196 -39.5t-155.5 -106t-100 -155.5t-36.5 -186q0 -161 99 -268 t268 -107q139 0 252 67.5t175 179t62 241.5zM553 993h176q65 0 103 -32t38 -84q0 -103 -104 -146v-4l88 -141v-6h-45l-90 139q-14 -2 -45 -2h-117l-18 -137h-43zM723 952h-133l-27 -194h129q62 0 98.5 33t36.5 81q0 36 -25.5 58t-78.5 22z" />
<glyph unicode="&#xaf;" horiz-adv-x="997" d="M453 1368l6 39h489l-6 -39h-489z" />
<glyph unicode="&#xb0;" horiz-adv-x="651" d="M518 1374q92 0 145.5 -53t53.5 -137q0 -102 -73.5 -172t-186.5 -70q-91 0 -145 52.5t-54 135.5q0 102 74.5 173t185.5 71zM512 1333q-91 0 -152 -57.5t-61 -140.5q0 -66 44.5 -109t119.5 -43q91 0 152 57t61 140q0 66 -44.5 109.5t-119.5 43.5z" />
<glyph unicode="&#xb1;" horiz-adv-x="1159" d="M662 393h-41l55 393h-393l6 41h393l55 398h41l-55 -398h383l-6 -41h-383zM1022 231l-6 -41h-817l6 41h817z" />
<glyph unicode="&#xb2;" horiz-adv-x="751" d="M219 700l4 29l377 285q119 89 119 194q0 63 -41 100.5t-129 37.5q-53 0 -105 -18t-78 -36l-26 -18l-18 31q11 9 31 22.5t81 36t121 22.5q105 0 155 -46.5t50 -122.5q0 -71 -36 -127t-106 -109l-317 -240h432l-6 -41h-508z" />
<glyph unicode="&#xb3;" horiz-adv-x="710" d="M315 1327l4 41h445l-6 -49l-228 -229h2q95 0 147 -44.5t52 -123.5q0 -101 -74.5 -169.5t-203.5 -68.5q-42 0 -81.5 9.5t-66 23.5t-47 28t-30.5 23l-9 10l31 29q3 -3 9 -8.5t25.5 -20t42 -25t58 -19.5t72.5 -9q107 0 170 54t63 136q0 63 -43 98.5t-119 35.5h-57l4 36 l242 242h-402z" />
<glyph unicode="&#xb4;" horiz-adv-x="481" d="M528 1300l-190 -282h-31l160 291z" />
<glyph unicode="&#xb5;" horiz-adv-x="991" d="M125 -393h-41l111 780l65 473h41l-65 -471q-15 -109 4 -190.5t81.5 -131t165.5 -49.5q84 0 155 33t114.5 83t69 101.5t32.5 96.5l74 528h41l-121 -860h-31l15 182h-2l-22 -35q-85 -116 -222 -153q-53 -14 -111 -14q-112 0 -181 52t-95 146z" />
<glyph unicode="&#xb6;" horiz-adv-x="964" d="M743 -168l84 594h-243q-193 0 -298.5 92.5t-105.5 255.5q0 210 138 333.5t378 123.5h287l-197 -1399h-43z" />
<glyph unicode="&#xb7;" horiz-adv-x="385" d="M240 733q0 24 20 43t45 19q21 0 34 -14t13 -36q0 -25 -19 -43t-44 -18q-22 0 -35.5 13.5t-13.5 35.5z" />
<glyph unicode="&#xb8;" horiz-adv-x="421" d="M145 -121l-12 23l62 104h43l-48 -84q64 0 100 -27t36 -81q0 -67 -50 -109.5t-131 -42.5q-37 0 -68.5 12t-44.5 24l-12 11l25 31q4 -4 12 -10.5t36 -17.5t59 -11q59 0 95 28.5t36 75.5q0 36 -28 57t-73 21z" />
<glyph unicode="&#xb9;" horiz-adv-x="411" d="M231 1327l7 41h217l-95 -668h-43l89 627h-175z" />
<glyph unicode="&#xba;" horiz-adv-x="874" d="M614 1255q131 0 210 -81t79 -218q0 -177 -111 -289t-276 -112q-131 0 -211 81t-80 216q0 180 111.5 291.5t277.5 111.5zM610 1214q-145 0 -242.5 -99t-97.5 -257q0 -120 69 -191t183 -71q143 0 240.5 99t97.5 255q0 122 -67.5 193t-182.5 71z" />
<glyph unicode="&#xbb;" horiz-adv-x="757" d="M434 444l-4 -34l-252 -320h-43l2 14l252 322v6l-162 318l2 14h43zM715 444l-4 -34l-252 -320h-43l2 14l252 322v6l-162 318l2 14h43z" />
<glyph unicode="&#xbc;" horiz-adv-x="1236" d="M635 207l6 37l442 424h31l-59 -420h129l-6 -41h-129l-29 -207h-41l29 207h-373zM147 0h-53l1147 1229h53zM696 248v-6l164 6h154l49 344h-4l-260 -248zM240 1188l4 41h217l-92 -668h-43l88 627h-174z" />
<glyph unicode="&#xbd;" horiz-adv-x="1382" d="M803 29l-4 -29h510l6 41h-436l319 240q72 55 107.5 109.5t35.5 123.5q0 77 -50.5 124.5t-155.5 47.5q-60 0 -118.5 -20.5t-86.5 -41.5l-29 -20l19 -31q10 8 28 20t72.5 32t107.5 20q88 0 129 -37t41 -100q0 -107 -118 -195zM141 0h-53l1147 1229h53zM244 1188l4 41h217 l-92 -668h-43l88 627h-174z" />
<glyph unicode="&#xbe;" horiz-adv-x="1476" d="M889 207l6 37l442 424h31l-59 -420h129l-6 -41h-129l-29 -207h-41l29 207h-373zM281 1188l4 41h444l-6 -49l-227 -230h2q94 0 146 -44.5t52 -123.5q0 -101 -74.5 -169t-203.5 -68q-42 0 -81.5 9.5t-66 23.5t-47 28t-29.5 24l-10 9l31 29q3 -3 9 -8.5t25.5 -20t42 -25 t58 -19.5t72.5 -9q109 0 171 53.5t62 136.5q0 63 -42.5 98t-118.5 35h-58l4 37l242 242h-401zM338 0h-53l1147 1229h53zM950 248v-6l164 6h154l49 344h-4l-260 -248z" />
<glyph unicode="&#xbf;" horiz-adv-x="817" d="M696 -264l23 -33q-5 -4 -14 -10t-40 -22t-66 -28t-90 -22t-114 -10q-159 0 -249.5 71t-90.5 197q0 70 21 127.5t55.5 96.5t76 72t85 61t80.5 56.5t64 66t34 81.5l25 158h30l-26 -166q-7 -47 -33.5 -86.5t-62 -69t-77 -57.5t-81.5 -59.5t-73 -68.5t-53 -90t-20 -118 q0 -107 77 -169t220 -62q53 0 103.5 8.5t84.5 21t60 25t39 21.5zM596 838q0 -23 -19 -41.5t-42 -18.5q-20 0 -34 14t-14 33q0 23 19.5 41.5t42.5 18.5q20 0 33.5 -14t13.5 -33z" />
<glyph unicode="&#xc0;" d="M784 1229l330 -1229h-45l-98 365h-666l-199 -365h-45l674 1229h49zM754 1186l-426 -780h633zM754 1300l-113 283l66 8l77 -291h-30z" />
<glyph unicode="&#xc1;" d="M784 1229l330 -1229h-45l-98 365h-666l-199 -365h-45l674 1229h49zM754 1186l-426 -780h633zM975 1583l-191 -283h-30l159 291z" />
<glyph unicode="&#xc2;" d="M784 1229l330 -1229h-45l-98 365h-666l-199 -365h-45l674 1229h49zM754 1186l-426 -780h633zM911 1368l-104 186l-156 -186h-45l174 223h60l116 -223h-45z" />
<glyph unicode="&#xc3;" d="M784 1229l330 -1229h-45l-98 365h-666l-199 -365h-45l674 1229h49zM754 1186l-426 -780h633zM907 1368q-33 0 -67.5 17.5t-59 39t-55.5 39t-57 17.5q-44 0 -66 -22t-39 -64l-10 -23l-29 4l11 31q35 113 137 113q33 0 67 -17.5t58.5 -39t56 -39t59.5 -17.5q43 0 65.5 23 t39.5 63l10 23l29 -5l-10 -30q-15 -47 -49 -80t-91 -33z" />
<glyph unicode="&#xc4;" d="M784 1229l330 -1229h-45l-98 365h-666l-199 -365h-45l674 1229h49zM754 1186l-426 -780h633zM600 1419q0 25 20.5 44.5t45.5 19.5q22 0 35.5 -14.5t13.5 -36.5q0 -25 -20.5 -44.5t-45.5 -19.5q-22 0 -35.5 14.5t-13.5 36.5zM864 1419q0 25 20.5 44.5t45.5 19.5 q22 0 35.5 -14.5t13.5 -36.5q0 -25 -20.5 -44.5t-45.5 -19.5q-22 0 -35.5 14.5t-13.5 36.5z" />
<glyph unicode="&#xc5;" d="M784 1229l330 -1229h-45l-98 365h-666l-199 -365h-45l674 1229h49zM754 1186l-426 -780h633zM807 1554q65 0 107 -34.5t42 -92.5q0 -74 -57.5 -120.5t-134.5 -46.5q-66 0 -107 33t-41 89q0 77 59 124.5t132 47.5zM911 1423q0 44 -29 68.5t-81 24.5q-63 0 -102.5 -35 t-39.5 -95q0 -42 29.5 -65t81.5 -23q61 0 101 34.5t40 90.5z" />
<glyph unicode="&#xc6;" horiz-adv-x="1775" d="M6 0l1036 1229h813l-4 -41h-770l-77 -547h675l-6 -41h-676l-77 -559h770l-7 -41h-813l52 365h-562l-307 -365h-47zM1020 1143l-625 -737h533l102 737h-10z" />
<glyph unicode="&#xc7;" horiz-adv-x="1181" d="M600 -127l-12 23l47 79q-206 23 -330.5 175.5t-124.5 375.5q0 150 56.5 285.5t151 232.5t223.5 154t270 57q74 0 140.5 -17t107.5 -40.5t71.5 -47.5t43.5 -41l13 -17l-30 -33q-4 6 -12.5 16.5t-40 37.5t-68.5 47t-99.5 37t-132.5 17q-133 0 -254.5 -56.5t-207.5 -150 t-136.5 -217.5t-50.5 -255q0 -106 33.5 -201t94.5 -166.5t153 -113.5t201 -42q70 0 136.5 16.5t111.5 40.5t80.5 48t52.5 41l16 16l18 -33q-6 -7 -18.5 -18.5t-53.5 -40.5t-86.5 -51.5t-117.5 -41t-146 -18.5h-24l-31 -55q63 0 99 -27.5t36 -81.5q0 -67 -49.5 -109 t-130.5 -42q-37 0 -68.5 12t-43.5 24l-13 11l25 31q4 -4 12 -10.5t35.5 -17.5t58.5 -11q59 0 95 28.5t36 75.5q0 36 -27.5 57t-72.5 21z" />
<glyph unicode="&#xc8;" horiz-adv-x="1099" d="M1004 641l-7 -41h-675l-78 -559h770l-6 -41h-813l172 1229h813l-4 -41h-770l-78 -547h676zM778 1298l-112 283l65 8l78 -291h-31z" />
<glyph unicode="&#xc9;" horiz-adv-x="1099" d="M1004 641l-7 -41h-675l-78 -559h770l-6 -41h-813l172 1229h813l-4 -41h-770l-78 -547h676zM983 1583l-190 -283h-31l160 291z" />
<glyph unicode="&#xca;" horiz-adv-x="1099" d="M1004 641l-7 -41h-675l-78 -559h770l-6 -41h-813l172 1229h813l-4 -41h-770l-78 -547h676zM922 1368l-105 186l-155 -186h-46l175 223h59l117 -223h-45z" />
<glyph unicode="&#xcb;" horiz-adv-x="1099" d="M1004 641l-7 -41h-675l-78 -559h770l-6 -41h-813l172 1229h813l-4 -41h-770l-78 -547h676zM614 1419q0 25 20.5 44.5t45.5 19.5q22 0 35.5 -14.5t13.5 -36.5q0 -25 -20 -44.5t-45 -19.5q-22 0 -36 14.5t-14 36.5zM879 1419q0 25 20 44.5t45 19.5q22 0 35.5 -14.5 t13.5 -36.5q0 -25 -20 -44.5t-45 -19.5q-22 0 -35.5 14.5t-13.5 36.5z" />
<glyph unicode="&#xcc;" horiz-adv-x="432" d="M410 1229l-172 -1229h-43l172 1229h43zM383 1300l-113 283l66 8l78 -291h-31z" />
<glyph unicode="&#xcd;" horiz-adv-x="432" d="M410 1229l-172 -1229h-43l172 1229h43zM604 1583l-190 -283h-31l160 291z" />
<glyph unicode="&#xce;" horiz-adv-x="432" d="M410 1229l-172 -1229h-43l172 1229h43zM541 1368l-105 186l-155 -186h-45l174 223h59l117 -223h-45z" />
<glyph unicode="&#xcf;" horiz-adv-x="432" d="M410 1229l-172 -1229h-43l172 1229h43zM229 1419q0 25 20.5 44.5t45.5 19.5q22 0 35.5 -14.5t13.5 -36.5q0 -25 -20 -44.5t-45 -19.5q-22 0 -36 14.5t-14 36.5zM494 1419q0 25 20 44.5t45 19.5q22 0 35.5 -14.5t13.5 -36.5q0 -25 -20 -44.5t-45 -19.5q-22 0 -35.5 14.5 t-13.5 36.5z" />
<glyph unicode="&#xd0;" horiz-adv-x="1282" d="M150 600l6 41h129l82 588h340q164 0 291 -61.5t200.5 -182.5t73.5 -285q0 -161 -59.5 -295t-161 -221.5t-234.5 -135.5t-282 -48h-340l84 600h-129zM705 1188h-299l-78 -547h422l-7 -41h-421l-78 -559h299q136 0 259.5 46t218 128t150.5 205.5t56 269.5q0 227 -147 362.5 t-375 135.5z" />
<glyph unicode="&#xd1;" horiz-adv-x="1359" d="M1337 1229l-172 -1229h-57l-705 1178l-165 -1178h-43l172 1229h59l704 -1176l164 1176h43zM1010 1368q-33 0 -67.5 17.5t-59 39t-56 39t-57.5 17.5q-24 0 -41.5 -6.5t-29 -21t-18 -26.5t-15.5 -32l-11 -23l-28 4l10 31q35 113 137 113q33 0 67.5 -17.5t59 -39t56 -39 t59.5 -17.5q42 0 64.5 22.5t39.5 63.5l10 23l29 -5l-10 -30q-15 -47 -48.5 -80t-90.5 -33z" />
<glyph unicode="&#xd2;" horiz-adv-x="1392" d="M692 -29q-234 0 -372 154.5t-138 394.5q0 203 89.5 371t248 266t352.5 98q156 0 273 -71.5t177 -195.5t60 -283q0 -202 -89 -370t-247.5 -266t-353.5 -98zM698 12q143 0 265 57.5t203.5 153t127 219t45.5 256.5q0 107 -30.5 199.5t-88 163.5t-149 112t-205.5 41 q-142 0 -264 -57.5t-203.5 -153t-127.5 -219.5t-46 -258q0 -106 30.5 -198.5t88.5 -163t149.5 -111.5t204.5 -41zM874 1368l-112 283l65 8l78 -291h-31z" />
<glyph unicode="&#xd3;" horiz-adv-x="1392" d="M692 -29q-234 0 -372 154.5t-138 394.5q0 203 89.5 371t248 266t352.5 98q156 0 273 -71.5t177 -195.5t60 -283q0 -202 -89 -370t-247.5 -266t-353.5 -98zM698 12q143 0 265 57.5t203.5 153t127 219t45.5 256.5q0 107 -30.5 199.5t-88 163.5t-149 112t-205.5 41 q-142 0 -264 -57.5t-203.5 -153t-127.5 -219.5t-46 -258q0 -106 30.5 -198.5t88.5 -163t149.5 -111.5t204.5 -41zM1092 1651l-191 -283h-31l160 291z" />
<glyph unicode="&#xd4;" horiz-adv-x="1392" d="M692 -29q-234 0 -372 154.5t-138 394.5q0 203 89.5 371t248 266t352.5 98q156 0 273 -71.5t177 -195.5t60 -283q0 -202 -89 -370t-247.5 -266t-353.5 -98zM698 12q143 0 265 57.5t203.5 153t127 219t45.5 256.5q0 107 -30.5 199.5t-88 163.5t-149 112t-205.5 41 q-142 0 -264 -57.5t-203.5 -153t-127.5 -219.5t-46 -258q0 -106 30.5 -198.5t88.5 -163t149.5 -111.5t204.5 -41zM1020 1368l-105 186l-155 -186h-45l174 223h59l117 -223h-45z" />
<glyph unicode="&#xd5;" horiz-adv-x="1392" d="M692 -29q-234 0 -372 154.5t-138 394.5q0 203 89.5 371t248 266t352.5 98q156 0 273 -71.5t177 -195.5t60 -283q0 -202 -89 -370t-247.5 -266t-353.5 -98zM698 12q143 0 265 57.5t203.5 153t127 219t45.5 256.5q0 107 -30.5 199.5t-88 163.5t-149 112t-205.5 41 q-142 0 -264 -57.5t-203.5 -153t-127.5 -219.5t-46 -258q0 -106 30.5 -198.5t88.5 -163t149.5 -111.5t204.5 -41zM1022 1421q-33 0 -67.5 17.5t-59 39t-56 39t-57.5 17.5q-24 0 -41.5 -6.5t-29 -21t-18 -26.5t-15.5 -32l-10 -23l-29 5l10 30q35 113 137 113q33 0 67.5 -17.5 t59 -39t56 -39t59.5 -17.5q42 0 65 23t40 63l10 23l28 -4l-10 -31q-15 -47 -48.5 -80t-90.5 -33z" />
<glyph unicode="&#xd6;" horiz-adv-x="1392" d="M692 -29q-234 0 -372 154.5t-138 394.5q0 203 89.5 371t248 266t352.5 98q156 0 273 -71.5t177 -195.5t60 -283q0 -202 -89 -370t-247.5 -266t-353.5 -98zM698 12q143 0 265 57.5t203.5 153t127 219t45.5 256.5q0 107 -30.5 199.5t-88 163.5t-149 112t-205.5 41 q-142 0 -264 -57.5t-203.5 -153t-127.5 -219.5t-46 -258q0 -106 30.5 -198.5t88.5 -163t149.5 -111.5t204.5 -41zM707 1419q0 25 20 44.5t45 19.5q22 0 35.5 -14.5t13.5 -36.5q0 -25 -20 -44.5t-45 -19.5q-22 0 -35.5 14.5t-13.5 36.5zM971 1419q0 25 20 44.5t45 19.5 q22 0 35.5 -14.5t13.5 -36.5q0 -25 -20 -44.5t-45 -19.5q-22 0 -35.5 14.5t-13.5 36.5z" />
<glyph unicode="&#xd7;" horiz-adv-x="1015" d="M211 244l-25 28l383 349l-284 350l32 28l283 -350l383 350l23 -28l-383 -350l284 -349l-30 -28l-285 348z" />
<glyph unicode="&#xd8;" horiz-adv-x="1392" d="M692 -29q-251 0 -391 174l-158 -145h-67l198 182q-92 143 -92 338q0 203 89.5 371t248 266t352.5 98q244 0 385 -170l156 144h70l-197 -180q96 -145 96 -344q0 -202 -89 -370t-247.5 -266t-353.5 -98zM698 12q143 0 265 57.5t203.5 153t127 219t45.5 256.5q0 184 -88 320 l-915 -842q128 -164 362 -164zM225 526q0 -179 84 -313l916 842q-130 159 -359 159q-142 0 -264 -57.5t-203.5 -153t-127.5 -219.5t-46 -258z" />
<glyph unicode="&#xd9;" horiz-adv-x="1277" d="M635 -27q-221 0 -322 142t-67 389l102 725h43l-102 -725q-31 -228 58 -359t294 -131t330.5 131t156.5 359l103 725h43l-103 -725q-34 -247 -174.5 -389t-361.5 -142zM807 1300l-113 283l66 8l78 -291h-31z" />
<glyph unicode="&#xda;" horiz-adv-x="1277" d="M635 -27q-221 0 -322 142t-67 389l102 725h43l-102 -725q-31 -228 58 -359t294 -131t330.5 131t156.5 359l103 725h43l-103 -725q-34 -247 -174.5 -389t-361.5 -142zM1024 1583l-190 -283h-31l160 291z" />
<glyph unicode="&#xdb;" horiz-adv-x="1277" d="M635 -27q-221 0 -322 142t-67 389l102 725h43l-102 -725q-31 -228 58 -359t294 -131t330.5 131t156.5 359l103 725h43l-103 -725q-34 -247 -174.5 -389t-361.5 -142zM952 1300l-104 187l-156 -187h-45l174 224h60l116 -224h-45z" />
<glyph unicode="&#xdc;" horiz-adv-x="1277" d="M635 -27q-221 0 -322 142t-67 389l102 725h43l-102 -725q-31 -228 58 -359t294 -131t330.5 131t156.5 359l103 725h43l-103 -725q-34 -247 -174.5 -389t-361.5 -142zM651 1419q0 25 20.5 44.5t45.5 19.5q22 0 35.5 -14.5t13.5 -36.5q0 -25 -20.5 -44.5t-45.5 -19.5 q-22 0 -35.5 14.5t-13.5 36.5zM915 1419q0 25 20.5 44.5t45.5 19.5q22 0 35.5 -14.5t13.5 -36.5q0 -25 -20 -44.5t-45 -19.5q-22 0 -36 14.5t-14 36.5z" />
<glyph unicode="&#xdd;" horiz-adv-x="1112" d="M672 569l493 660h52l-574 -754l-65 -475h-43l65 475l-360 754h51l311 -660l25 -59h4zM944 1583l-190 -283h-31l160 291z" />
<glyph unicode="&#xde;" horiz-adv-x="1150" d="M410 1229l-29 -211h389q191 0 297.5 -97t106.5 -251q0 -194 -142.5 -325.5t-374.5 -131.5h-389l-30 -213h-43l172 1229h43zM1128 664q0 140 -97.5 226.5t-264.5 86.5h-391l-103 -723h392q202 0 333 116.5t131 293.5z" />
<glyph unicode="&#xdf;" horiz-adv-x="931" d="M553 575l6 39q158 3 255 92t97 226q0 106 -70.5 182t-181.5 76q-124 0 -218 -86t-113 -219l-125 -885h-41l125 893q20 145 127.5 240.5t249.5 95.5q129 0 208.5 -83t79.5 -206q0 -126 -71 -217t-191 -127q82 -25 130 -90.5t48 -161.5q0 -156 -107.5 -257t-268.5 -101 q-46 0 -85 6.5t-55 13.5l-16 6l16 37q62 -24 150 -24q135 0 230 92t95 217q0 107 -71 174t-185 67h-18z" />
<glyph unicode="&#xe0;" horiz-adv-x="1075" d="M963 631h2l41 229h30l-121 -860h-30l20 215h-2q-4 -10 -13 -25.5t-43 -56t-75.5 -71.5t-113.5 -56.5t-154 -25.5q-153 0 -251.5 107.5t-98.5 279.5q0 110 39.5 207t105 163.5t152.5 105t180 38.5q59 0 109 -14t83 -36t59 -48.5t41 -53t24.5 -48.5t12.5 -36zM942 492 q0 168 -88.5 259t-226.5 91q-83 0 -161 -35.5t-137.5 -97t-95.5 -150t-36 -188.5q0 -155 90 -254t225 -99q84 0 161.5 34t137 94.5t95.5 150.5t36 195zM639 1018l-113 282l66 9l78 -291h-31z" />
<glyph unicode="&#xe1;" horiz-adv-x="1075" d="M963 631h2l41 229h30l-121 -860h-30l20 215h-2q-4 -10 -13 -25.5t-43 -56t-75.5 -71.5t-113.5 -56.5t-154 -25.5q-153 0 -251.5 107.5t-98.5 279.5q0 110 39.5 207t105 163.5t152.5 105t180 38.5q59 0 109 -14t83 -36t59 -48.5t41 -53t24.5 -48.5t12.5 -36zM942 492 q0 168 -88.5 259t-226.5 91q-83 0 -161 -35.5t-137.5 -97t-95.5 -150t-36 -188.5q0 -155 90 -254t225 -99q84 0 161.5 34t137 94.5t95.5 150.5t36 195zM866 1300l-190 -282h-31l160 291z" />
<glyph unicode="&#xe2;" horiz-adv-x="1075" d="M963 631h2l41 229h30l-121 -860h-30l20 215h-2q-4 -10 -13 -25.5t-43 -56t-75.5 -71.5t-113.5 -56.5t-154 -25.5q-153 0 -251.5 107.5t-98.5 279.5q0 110 39.5 207t105 163.5t152.5 105t180 38.5q59 0 109 -14t83 -36t59 -48.5t41 -53t24.5 -48.5t12.5 -36zM942 492 q0 168 -88.5 259t-226.5 91q-83 0 -161 -35.5t-137.5 -97t-95.5 -150t-36 -188.5q0 -155 90 -254t225 -99q84 0 161.5 34t137 94.5t95.5 150.5t36 195zM797 1085l-105 187l-155 -187h-45l174 224h59l117 -224h-45z" />
<glyph unicode="&#xe3;" horiz-adv-x="1075" d="M963 631h2l41 229h30l-121 -860h-30l20 215h-2q-4 -10 -13 -25.5t-43 -56t-75.5 -71.5t-113.5 -56.5t-154 -25.5q-153 0 -251.5 107.5t-98.5 279.5q0 110 39.5 207t105 163.5t152.5 105t180 38.5q59 0 109 -14t83 -36t59 -48.5t41 -53t24.5 -48.5t12.5 -36zM942 492 q0 168 -88.5 259t-226.5 91q-83 0 -161 -35.5t-137.5 -97t-95.5 -150t-36 -188.5q0 -155 90 -254t225 -99q84 0 161.5 34t137 94.5t95.5 150.5t36 195zM776 1018q-41 0 -84 28t-82.5 56t-72.5 28q-44 0 -66 -22t-39 -64l-10 -22l-29 4l10 31q35 112 138 112q33 0 67 -17.5 t58.5 -38.5t56 -38.5t59.5 -17.5q42 0 65 23t40 63l10 22l29 -4l-11 -31q-15 -47 -48.5 -79.5t-90.5 -32.5z" />
<glyph unicode="&#xe4;" horiz-adv-x="1075" d="M963 631h2l41 229h30l-121 -860h-30l20 215h-2q-4 -10 -13 -25.5t-43 -56t-75.5 -71.5t-113.5 -56.5t-154 -25.5q-153 0 -251.5 107.5t-98.5 279.5q0 110 39.5 207t105 163.5t152.5 105t180 38.5q59 0 109 -14t83 -36t59 -48.5t41 -53t24.5 -48.5t12.5 -36zM942 492 q0 168 -88.5 259t-226.5 91q-83 0 -161 -35.5t-137.5 -97t-95.5 -150t-36 -188.5q0 -155 90 -254t225 -99q84 0 161.5 34t137 94.5t95.5 150.5t36 195zM473 1069q0 25 20.5 44.5t45.5 19.5q21 0 35 -15t14 -37q0 -25 -20.5 -44t-45.5 -19q-22 0 -35.5 14.5t-13.5 36.5z M737 1069q0 25 20.5 44.5t45.5 19.5q21 0 35 -15t14 -37q0 -25 -20.5 -44t-45.5 -19q-22 0 -35.5 14.5t-13.5 36.5z" />
<glyph unicode="&#xe5;" horiz-adv-x="1075" d="M963 631h2l41 229h30l-121 -860h-30l20 215h-2q-4 -10 -13 -25.5t-43 -56t-75.5 -71.5t-113.5 -56.5t-154 -25.5q-153 0 -251.5 107.5t-98.5 279.5q0 110 39.5 207t105 163.5t152.5 105t180 38.5q59 0 109 -14t83 -36t59 -48.5t41 -53t24.5 -48.5t12.5 -36zM942 492 q0 168 -88.5 259t-226.5 91q-83 0 -161 -35.5t-137.5 -97t-95.5 -150t-36 -188.5q0 -155 90 -254t225 -99q84 0 161.5 34t137 94.5t95.5 150.5t36 195zM686 1313q66 0 108 -34.5t42 -92.5q0 -74 -58 -121t-135 -47q-65 0 -106 33.5t-41 89.5q0 77 58.5 124.5t131.5 47.5z M791 1182q0 44 -29 68t-82 24q-63 0 -102 -34.5t-39 -94.5q0 -42 29 -65t81 -23q61 0 101.5 34.5t40.5 90.5z" />
<glyph unicode="&#xe6;" horiz-adv-x="1636" d="M1497 109l14 -37q-5 -4 -14.5 -10t-41 -22t-65 -28t-84.5 -22t-102 -10q-138 0 -236 71t-128 199q-45 -110 -167.5 -190t-266.5 -80q-146 0 -219.5 68t-73.5 169q0 130 107.5 215.5t301.5 85.5t316 -65l8 53q23 155 -42 245.5t-237 90.5q-64 0 -134 -18.5t-108 -37.5 l-38 -18l-13 37q5 3 15.5 8t43 18.5t66.5 23.5t84 18t99 8q153 0 228 -72t81 -195q61 127 166.5 197t230.5 70q186 0 272 -112t56 -302l-2 -12h-731l-4 -31q-25 -183 73.5 -293.5t255.5 -110.5q50 0 98 9t81 22t59 26.5t38 22.5zM424 20q144 0 262 91t131 184l17 115 q-129 71 -314 71q-188 0 -277 -75t-89 -187q0 -84 65.5 -141.5t204.5 -57.5zM1282 842q-130 0 -239 -91.5t-150 -254.5h684q9 68 -4.5 129.5t-47.5 110t-96.5 77.5t-146.5 29z" />
<glyph unicode="&#xe7;" horiz-adv-x="870" d="M440 -135l-12 22l53 95q-146 9 -237.5 110t-91.5 266q0 114 40 213t107.5 166.5t155.5 105.5t184 38q46 0 88.5 -8t70.5 -19.5t49.5 -23t31.5 -19.5l10 -8l-23 -35q-10 8 -28 20.5t-79 33t-128 20.5q-79 0 -157 -34t-140 -94.5t-100.5 -151t-38.5 -195.5q0 -159 93 -254 t228 -95q67 0 131 18.5t95 37.5l30 18l12 -35q-11 -8 -32.5 -20.5t-89.5 -33.5t-138 -23l-39 -72q63 0 99.5 -27.5t36.5 -81.5q0 -67 -50 -109t-131 -42q-37 0 -68.5 12t-43.5 24l-13 11l25 31q4 -4 12 -10.5t35.5 -17.5t58.5 -11q59 0 95.5 28.5t36.5 75.5q0 36 -28 57 t-73 21z" />
<glyph unicode="&#xe8;" horiz-adv-x="942" d="M799 106l16 -34q-5 -4 -14.5 -10t-41.5 -22t-66 -28t-85.5 -22t-103.5 -10q-157 0 -253.5 101t-96.5 273q0 121 37 222t100 167t145.5 102t173.5 36q173 0 257 -112.5t53 -301.5l-2 -12h-711l-4 -31q-26 -185 63.5 -295.5t243.5 -110.5q50 0 98 9t81 22t59 26t38 22z M606 842q-130 0 -239.5 -91.5t-149.5 -254.5h664q10 91 -14.5 168t-92 127.5t-168.5 50.5zM596 1018l-113 282l66 9l78 -291h-31z" />
<glyph unicode="&#xe9;" horiz-adv-x="942" d="M799 106l16 -34q-5 -4 -14.5 -10t-41.5 -22t-66 -28t-85.5 -22t-103.5 -10q-157 0 -253.5 101t-96.5 273q0 121 37 222t100 167t145.5 102t173.5 36q173 0 257 -112.5t53 -301.5l-2 -12h-711l-4 -31q-26 -185 63.5 -295.5t243.5 -110.5q50 0 98 9t81 22t59 26t38 22z M606 842q-130 0 -239.5 -91.5t-149.5 -254.5h664q10 91 -14.5 168t-92 127.5t-168.5 50.5zM813 1300l-190 -282h-31l160 291z" />
<glyph unicode="&#xea;" horiz-adv-x="942" d="M799 106l16 -34q-5 -4 -14.5 -10t-41.5 -22t-66 -28t-85.5 -22t-103.5 -10q-157 0 -253.5 101t-96.5 273q0 121 37 222t100 167t145.5 102t173.5 36q173 0 257 -112.5t53 -301.5l-2 -12h-711l-4 -31q-26 -185 63.5 -295.5t243.5 -110.5q50 0 98 9t81 22t59 26t38 22z M606 842q-130 0 -239.5 -91.5t-149.5 -254.5h664q10 91 -14.5 168t-92 127.5t-168.5 50.5zM748 1018l-105 186l-156 -186h-45l174 223h60l117 -223h-45z" />
<glyph unicode="&#xeb;" horiz-adv-x="942" d="M799 106l16 -34q-5 -4 -14.5 -10t-41.5 -22t-66 -28t-85.5 -22t-103.5 -10q-157 0 -253.5 101t-96.5 273q0 121 37 222t100 167t145.5 102t173.5 36q173 0 257 -112.5t53 -301.5l-2 -12h-711l-4 -31q-26 -185 63.5 -295.5t243.5 -110.5q50 0 98 9t81 22t59 26t38 22z M606 842q-130 0 -239.5 -91.5t-149.5 -254.5h664q10 91 -14.5 168t-92 127.5t-168.5 50.5zM430 1069q0 25 20.5 44.5t45.5 19.5q21 0 35 -15t14 -37q0 -25 -20.5 -44t-45.5 -19q-22 0 -35.5 14.5t-13.5 36.5zM694 1069q0 25 20.5 44.5t45.5 19.5q21 0 35 -15t14 -37 q0 -25 -20.5 -44t-45.5 -19q-22 0 -35.5 14.5t-13.5 36.5z" />
<glyph unicode="&#xec;" horiz-adv-x="372" d="M166 0l121 860h41l-121 -860h-41zM315 1018l-112 282l65 9l78 -291h-31z" />
<glyph unicode="&#xed;" horiz-adv-x="372" d="M166 0l121 860h41l-121 -860h-41zM535 1300l-191 -282h-31l160 291z" />
<glyph unicode="&#xee;" horiz-adv-x="372" d="M166 0l121 860h41l-121 -860h-41zM461 1018l-105 186l-155 -186h-45l174 223h59l117 -223h-45z" />
<glyph unicode="&#xef;" horiz-adv-x="372" d="M166 0l121 860h41l-121 -860h-41zM150 1069q0 25 20 44.5t45 19.5q21 0 35 -15t14 -37q0 -25 -20 -44t-45 -19q-22 0 -35.5 14.5t-13.5 36.5zM414 1069q0 25 20 44.5t45 19.5q21 0 35 -15t14 -37q0 -25 -20 -44t-45 -19q-22 0 -35.5 14.5t-13.5 36.5z" />
<glyph unicode="&#xf0;" horiz-adv-x="1013" d="M502 -20q-153 0 -251.5 107.5t-98.5 279.5q0 147 64 265.5t173 183.5t240 65q139 0 235 -90l4 4q-20 26 -32 53l-156 319l-264 -149l-17 37l265 149l-134 279l2 8h41l129 -264l261 149l18 -37l-260 -149l164 -332q94 -189 94 -366q0 -143 -63 -260.5t-172.5 -184.5 t-241.5 -67zM934 475q0 167 -85 267t-228 100q-83 0 -160.5 -35.5t-136 -97t-94 -150t-35.5 -188.5q0 -156 87.5 -254.5t221.5 -98.5q115 0 213 58t157.5 163.5t59.5 235.5z" />
<glyph unicode="&#xf1;" horiz-adv-x="1034" d="M162 0l121 860h30l-14 -180h2q23 46 77 95q115 106 277 106q167 0 245 -114t52 -294l-65 -473h-41l65 471q23 166 -43.5 268.5t-220.5 102.5q-66 0 -124 -21t-99 -53.5t-72.5 -74t-49 -81t-23.5 -75.5l-76 -537h-41zM795 1018q-33 0 -67.5 17.5t-59 38.5t-56 38.5 t-57.5 17.5q-24 0 -41.5 -6.5t-29 -21t-18 -26.5t-15.5 -32l-11 -22l-28 4l10 31q35 112 137 112q41 0 84 -28t83 -56t75 -28q42 0 64.5 22.5t39.5 63.5l10 22l29 -4l-10 -31q-15 -47 -48.5 -79.5t-90.5 -32.5z" />
<glyph unicode="&#xf2;" horiz-adv-x="1030" d="M997 492q0 -114 -40 -211.5t-107 -162.5t-155 -101.5t-183 -36.5q-159 0 -259.5 103t-100.5 277q0 113 40 211.5t107 165.5t155.5 105.5t184.5 38.5q157 0 257.5 -107t100.5 -282zM518 18q81 0 158 32.5t139 90.5t99.5 147.5t37.5 194.5q0 161 -92 260t-227 99 q-80 0 -158 -34t-140.5 -94.5t-101 -151t-38.5 -195.5q0 -159 93 -254t230 -95zM645 1018l-113 282l66 9l78 -291h-31z" />
<glyph unicode="&#xf3;" horiz-adv-x="1030" d="M997 492q0 -114 -40 -211.5t-107 -162.5t-155 -101.5t-183 -36.5q-159 0 -259.5 103t-100.5 277q0 113 40 211.5t107 165.5t155.5 105.5t184.5 38.5q157 0 257.5 -107t100.5 -282zM518 18q81 0 158 32.5t139 90.5t99.5 147.5t37.5 194.5q0 161 -92 260t-227 99 q-80 0 -158 -34t-140.5 -94.5t-101 -151t-38.5 -195.5q0 -159 93 -254t230 -95zM862 1300l-190 -282h-31l160 291z" />
<glyph unicode="&#xf4;" horiz-adv-x="1030" d="M997 492q0 -114 -40 -211.5t-107 -162.5t-155 -101.5t-183 -36.5q-159 0 -259.5 103t-100.5 277q0 113 40 211.5t107 165.5t155.5 105.5t184.5 38.5q157 0 257.5 -107t100.5 -282zM518 18q81 0 158 32.5t139 90.5t99.5 147.5t37.5 194.5q0 161 -92 260t-227 99 q-80 0 -158 -34t-140.5 -94.5t-101 -151t-38.5 -195.5q0 -159 93 -254t230 -95zM791 1018l-105 186l-156 -186h-45l174 223h60l117 -223h-45z" />
<glyph unicode="&#xf5;" horiz-adv-x="1030" d="M997 492q0 -114 -40 -211.5t-107 -162.5t-155 -101.5t-183 -36.5q-159 0 -259.5 103t-100.5 277q0 113 40 211.5t107 165.5t155.5 105.5t184.5 38.5q157 0 257.5 -107t100.5 -282zM518 18q81 0 158 32.5t139 90.5t99.5 147.5t37.5 194.5q0 161 -92 260t-227 99 q-80 0 -158 -34t-140.5 -94.5t-101 -151t-38.5 -195.5q0 -159 93 -254t230 -95zM784 1018q-41 0 -84 28t-82.5 56t-72.5 28q-44 0 -66 -22t-39 -64l-10 -22l-29 4l11 31q35 112 137 112q41 0 84 -28t83 -56t75 -28q42 0 64.5 22.5t39.5 63.5l10 22l29 -4l-10 -31 q-15 -46 -49 -79t-91 -33z" />
<glyph unicode="&#xf6;" horiz-adv-x="1030" d="M997 492q0 -114 -40 -211.5t-107 -162.5t-155 -101.5t-183 -36.5q-159 0 -259.5 103t-100.5 277q0 113 40 211.5t107 165.5t155.5 105.5t184.5 38.5q157 0 257.5 -107t100.5 -282zM518 18q81 0 158 32.5t139 90.5t99.5 147.5t37.5 194.5q0 161 -92 260t-227 99 q-80 0 -158 -34t-140.5 -94.5t-101 -151t-38.5 -195.5q0 -159 93 -254t230 -95zM477 1069q0 25 20.5 44.5t45.5 19.5q21 0 35 -15t14 -37q0 -25 -20.5 -44t-45.5 -19q-22 0 -35.5 14.5t-13.5 36.5zM741 1069q0 25 20.5 44.5t45.5 19.5q21 0 35 -15t14 -37q0 -25 -20 -44 t-45 -19q-22 0 -36 14.5t-14 36.5z" />
<glyph unicode="&#xf7;" horiz-adv-x="1001" d="M494 346q0 25 20 44.5t45 19.5q22 0 36.5 -15t14.5 -37q0 -25 -20.5 -44t-46.5 -19q-20 0 -34.5 14.5t-14.5 36.5zM565 860q0 25 20.5 44.5t45.5 19.5q22 0 36.5 -15t14.5 -37q0 -24 -20.5 -43.5t-45.5 -19.5q-22 0 -36.5 14.5t-14.5 36.5zM223 582l6 41h719l-6 -41h-719 z" />
<glyph unicode="&#xf8;" horiz-adv-x="1032" d="M997 492q0 -114 -40 -211.5t-107 -162.5t-155 -101.5t-183 -36.5q-164 0 -266 108l-94 -88h-62l129 123q-67 95 -67 237q0 113 40 211.5t107 165.5t155.5 105.5t184.5 38.5q159 0 264 -115l103 94h59l-137 -127q69 -97 69 -241zM195 367q0 -125 59 -213l612 581 q-90 107 -233 107q-80 0 -158 -34t-140.5 -94.5t-101 -151t-38.5 -195.5zM518 18q81 0 158 32.5t139 90.5t99.5 147.5t37.5 194.5q0 126 -59 217l-612 -581q90 -101 237 -101z" />
<glyph unicode="&#xf9;" horiz-adv-x="1021" d="M866 332l74 528h41l-121 -860h-31l15 182h-2l-22 -35q-85 -116 -222 -153q-53 -14 -111 -14q-166 0 -238 112.5t-46 294.5l65 473h41l-65 -471q-15 -109 4.5 -190.5t82 -131t165.5 -49.5q84 0 155 33t114 83t68.5 101.5t32.5 96.5zM621 1018l-113 282l65 9l78 -291h-30z " />
<glyph unicode="&#xfa;" horiz-adv-x="1021" d="M866 332l74 528h41l-121 -860h-31l15 182h-2l-22 -35q-85 -116 -222 -153q-53 -14 -111 -14q-166 0 -238 112.5t-46 294.5l65 473h41l-65 -471q-15 -109 4.5 -190.5t82 -131t165.5 -49.5q84 0 155 33t114 83t68.5 101.5t32.5 96.5zM840 1300l-191 -282h-31l160 291z" />
<glyph unicode="&#xfb;" horiz-adv-x="1021" d="M866 332l74 528h41l-121 -860h-31l15 182h-2l-22 -35q-85 -116 -222 -153q-53 -14 -111 -14q-166 0 -238 112.5t-46 294.5l65 473h41l-65 -471q-15 -109 4.5 -190.5t82 -131t165.5 -49.5q84 0 155 33t114 83t68.5 101.5t32.5 96.5zM766 1018l-104 186l-156 -186h-45 l174 223h59l117 -223h-45z" />
<glyph unicode="&#xfc;" horiz-adv-x="1021" d="M866 332l74 528h41l-121 -860h-31l15 182h-2l-22 -35q-85 -116 -222 -153q-53 -14 -111 -14q-166 0 -238 112.5t-46 294.5l65 473h41l-65 -471q-15 -109 4.5 -190.5t82 -131t165.5 -49.5q84 0 155 33t114 83t68.5 101.5t32.5 96.5zM455 1069q0 25 20 44.5t45 19.5 q21 0 35 -15t14 -37q0 -25 -20 -44t-45 -19q-22 0 -35.5 14.5t-13.5 36.5zM719 1069q0 25 20 44.5t45 19.5q22 0 36 -15t14 -37q0 -25 -20.5 -44t-45.5 -19q-22 0 -35.5 14.5t-13.5 36.5z" />
<glyph unicode="&#xfd;" horiz-adv-x="1015" d="M860 332l74 528h41l-121 -858q-25 -175 -133.5 -272t-286.5 -97q-56 0 -106.5 11t-82 26.5t-55 31.5t-33.5 27l-10 11l31 29l10.5 -10.5t31 -23t52.5 -29.5t73.5 -23.5t94.5 -10.5q158 0 253.5 86.5t119.5 243.5l27 180h-4q-4 -8 -12 -21.5t-39 -48.5t-68 -61.5 t-101 -48.5t-137 -22q-166 0 -238 112.5t-46 294.5l65 473h43l-65 -471q-23 -168 37 -268.5t212 -100.5q68 0 128 22t101.5 56t73.5 76.5t48.5 82.5t21.5 75zM846 1300l-191 -282h-30l159 291z" />
<glyph unicode="&#xfe;" horiz-adv-x="1077" d="M238 227h-2l-78 -546h-41l217 1548h41l-84 -596h2q5 10 14 27t44 59.5t77 75t114.5 59.5t153.5 27q152 0 250 -107.5t98 -279.5q0 -110 -39.5 -207t-104.5 -163.5t-151 -105t-178 -38.5q-81 0 -145.5 25.5t-98 61.5t-55.5 72.5t-28 62.5zM256 369q0 -161 92 -256t227 -95 q83 0 160.5 35.5t136 97t94 150t35.5 188.5q0 156 -86.5 254.5t-222.5 98.5q-82 0 -160 -33t-139.5 -91.5t-99 -149.5t-37.5 -199z" />
<glyph unicode="&#xff;" horiz-adv-x="1015" d="M860 332l74 528h41l-121 -858q-25 -175 -133.5 -272t-286.5 -97q-56 0 -106.5 11t-82 26.5t-55 31.5t-33.5 27l-10 11l31 29l10.5 -10.5t31 -23t52.5 -29.5t73.5 -23.5t94.5 -10.5q158 0 253.5 86.5t119.5 243.5l27 180h-4q-4 -8 -12 -21.5t-39 -48.5t-68 -61.5 t-101 -48.5t-137 -22q-166 0 -238 112.5t-46 294.5l65 473h43l-65 -471q-23 -168 37 -268.5t212 -100.5q68 0 128 22t101.5 56t73.5 76.5t48.5 82.5t21.5 75zM461 1069q0 25 20 44.5t45 19.5q21 0 35 -15t14 -37q0 -25 -20 -44t-45 -19q-22 0 -35.5 14.5t-13.5 36.5z M725 1069q0 25 20.5 44.5t45.5 19.5q21 0 35 -15t14 -37q0 -25 -20.5 -44t-45.5 -19q-22 0 -35.5 14.5t-13.5 36.5z" />
<glyph unicode="&#x152;" horiz-adv-x="2152" d="M686 -29q-234 0 -372 154.5t-138 394.5q0 203 89.5 371t248 266t352.5 98q198 0 329 -112t167 -299l55 385h813l-4 -41h-770l-78 -547h676l-6 -41h-676l-78 -559h770l-6 -41h-813l49 348q-88 -172 -248.5 -274.5t-359.5 -102.5zM692 12q143 0 265 57.5t203.5 153t127 219 t45.5 256.5q0 107 -30.5 199.5t-88 163.5t-149 112t-205.5 41q-142 0 -264 -57.5t-203.5 -153t-127.5 -219.5t-46 -258q0 -106 30.5 -198.5t88.5 -163t149.5 -111.5t204.5 -41z" />
<glyph unicode="&#x153;" horiz-adv-x="1728" d="M1587 106l17 -34q-5 -4 -15 -10t-42 -22t-66 -28t-85.5 -22t-103.5 -10q-136 0 -228.5 77t-115.5 211q-59 -134 -179 -211t-261 -77q-160 0 -260.5 103t-100.5 277q0 113 40.5 211.5t107.5 165.5t155.5 105.5t184.5 38.5q133 0 227.5 -79.5t120.5 -213.5 q55 137 167.5 215t248.5 78q173 0 256.5 -112.5t52.5 -301.5l-2 -12h-711l-4 -31q-26 -185 63.5 -295.5t243.5 -110.5q50 0 98 9t81 22t59 26t38 22zM514 18q81 0 158 32.5t139 90.5t99.5 147.5t37.5 194.5q0 161 -92 260t-227 99q-80 0 -158.5 -34t-141 -94.5t-101 -151 t-38.5 -195.5q0 -159 93.5 -254t230.5 -95zM1395 842q-130 0 -239.5 -91.5t-149.5 -254.5h663q10 91 -14.5 168t-91.5 127.5t-168 50.5z" />
<glyph unicode="&#x178;" horiz-adv-x="1112" d="M672 569l493 660h52l-574 -754l-65 -475h-43l65 475l-360 754h51l311 -660l25 -59h4zM569 1419q0 25 20.5 44.5t45.5 19.5q22 0 35.5 -14.5t13.5 -36.5q0 -25 -20.5 -44.5t-45.5 -19.5q-22 0 -35.5 14.5t-13.5 36.5zM834 1419q0 25 20 44.5t45 19.5q22 0 35.5 -14.5 t13.5 -36.5q0 -25 -20 -44.5t-45 -19.5q-22 0 -35.5 14.5t-13.5 36.5z" />
<glyph unicode="&#x2c6;" horiz-adv-x="643" d="M651 1368l-104 186l-156 -186h-45l174 223h60l116 -223h-45z" />
<glyph unicode="&#x2dc;" horiz-adv-x="839" d="M725 1368q-33 0 -67.5 17.5t-59 39t-56 39t-57.5 17.5q-24 0 -41.5 -6.5t-29 -21t-18 -26.5t-15.5 -32l-10 -23l-29 4l10 31q35 113 137 113q33 0 67.5 -17.5t59 -39t56 -39t59.5 -17.5q43 0 65.5 23t39.5 63l10 23l28 -5l-10 -30q-15 -47 -48.5 -80t-90.5 -33z" />
<glyph unicode="&#x2000;" horiz-adv-x="829" />
<glyph unicode="&#x2001;" horiz-adv-x="1659" />
<glyph unicode="&#x2002;" horiz-adv-x="829" />
<glyph unicode="&#x2003;" horiz-adv-x="1659" />
<glyph unicode="&#x2004;" horiz-adv-x="553" />
<glyph unicode="&#x2005;" horiz-adv-x="414" />
<glyph unicode="&#x2006;" horiz-adv-x="276" />
<glyph unicode="&#x2007;" horiz-adv-x="276" />
<glyph unicode="&#x2008;" horiz-adv-x="207" />
<glyph unicode="&#x2009;" horiz-adv-x="331" />
<glyph unicode="&#x200a;" horiz-adv-x="92" />
<glyph unicode="&#x2010;" horiz-adv-x="821" d="M201 451l6 41h547l-6 -41h-547z" />
<glyph unicode="&#x2011;" horiz-adv-x="821" d="M201 451l6 41h547l-6 -41h-547z" />
<glyph unicode="&#x2012;" horiz-adv-x="821" d="M201 451l6 41h547l-6 -41h-547z" />
<glyph unicode="&#x2013;" horiz-adv-x="937" d="M217 569l6 41h641l-6 -41h-641z" />
<glyph unicode="&#x2014;" horiz-adv-x="1492" d="M217 569l6 41h1196l-6 -41h-1196z" />
<glyph unicode="&#x2018;" horiz-adv-x="407" d="M324 1038q20 0 33.5 -14t13.5 -33q0 -23 -19 -41t-43 -18q-21 0 -34 15.5t-11 37.5l2 25q8 81 65.5 140t155.5 79l5 -37q-73 -11 -123 -57.5t-52 -92.5v-4h7z" />
<glyph unicode="&#x2019;" horiz-adv-x="423" d="M424 1122q-20 0 -33.5 14t-13.5 33q0 23 19 41.5t42 18.5q21 0 34 -15.5t11 -37.5l-2 -25q-8 -81 -66.5 -140t-156.5 -79l-2 37q73 11 122.5 57t51.5 92v4h-6z" />
<glyph unicode="&#x201a;" horiz-adv-x="393" d="M205 -16h-6q-22 0 -35.5 14t-13.5 37q0 24 15.5 39.5t41.5 15.5q21 0 35 -14.5t14 -38.5q0 -92 -58.5 -155.5t-166.5 -88.5l-2 37q72 11 120.5 57t55.5 93v4z" />
<glyph unicode="&#x201c;" horiz-adv-x="681" d="M600 1038q20 0 33.5 -14t13.5 -33q0 -23 -19 -41t-42 -18q-21 0 -34 15.5t-11 37.5l2 25q8 81 65.5 140t155.5 79l4 -37q-73 -11 -122.5 -57.5t-51.5 -92.5v-4h6zM322 1038q20 0 33.5 -14t13.5 -33q0 -23 -19 -41t-43 -18q-21 0 -34 15.5t-11 37.5l2 25q8 81 65.5 140 t155.5 79l4 -37q-73 -11 -122.5 -57.5t-51.5 -92.5v-4h7z" />
<glyph unicode="&#x201d;" horiz-adv-x="698" d="M424 1122q-20 0 -33.5 14t-13.5 33q0 23 19 41.5t42 18.5q21 0 34 -15.5t11 -37.5l-2 -25q-8 -81 -66.5 -140t-156.5 -79l-2 37q73 11 122.5 57t51.5 92v4h-6zM702 1122q-20 0 -33.5 14t-13.5 33q0 23 19.5 41.5t42.5 18.5q21 0 34 -15.5t11 -37.5l-2 -25 q-8 -81 -66.5 -140t-156.5 -79l-2 37q73 11 122.5 57t51.5 92v4h-7z" />
<glyph unicode="&#x201e;" horiz-adv-x="669" d="M205 -16h-6q-22 0 -35.5 14t-13.5 37q0 24 15.5 39.5t41.5 15.5q21 0 35 -14.5t14 -38.5q0 -92 -58.5 -155.5t-166.5 -88.5l-2 37q72 11 120.5 57t55.5 93v4zM481 -16h-6q-22 0 -35.5 14t-13.5 37q0 24 15.5 39.5t41.5 15.5q21 0 35 -14.5t14 -38.5q0 -92 -58.5 -155.5 t-166.5 -88.5l-2 37q72 11 120.5 57t55.5 93v4z" />
<glyph unicode="&#x2022;" horiz-adv-x="577" d="M369 563q40 0 66 -27t26 -67q0 -49 -36.5 -84t-86.5 -35q-40 0 -66 27t-26 67q0 49 36.5 84t86.5 35z" />
<glyph unicode="&#x2026;" horiz-adv-x="1077" d="M141 31q0 23 19 41t43 18q20 0 33.5 -14t13.5 -33q0 -23 -19 -41t-43 -18q-20 0 -33.5 14t-13.5 33zM489 31q0 23 19 41t43 18q20 0 33.5 -14t13.5 -33q0 -23 -19 -41t-42 -18q-20 0 -34 14t-14 33zM838 31q0 23 19 41t42 18q20 0 33.5 -14t13.5 -33q0 -23 -19 -41 t-42 -18q-20 0 -33.5 14t-13.5 33z" />
<glyph unicode="&#x202f;" horiz-adv-x="331" />
<glyph unicode="&#x2039;" horiz-adv-x="477" d="M162 410l4 34l252 320h43l-2 -14l-250 -318l-2 -6l162 -322l-2 -14h-43z" />
<glyph unicode="&#x203a;" horiz-adv-x="477" d="M434 444l-4 -34l-252 -320h-43l2 14l252 322v6l-162 318l2 14h43z" />
<glyph unicode="&#x205f;" horiz-adv-x="414" />
<glyph unicode="&#x20ac;" horiz-adv-x="1241" d="M901 492l-6 -41h-479q13 -184 112 -300t279 -116q56 0 108.5 13.5t88 32.5t63 38.5t40.5 32.5l13 14l25 -29q-5 -6 -14.5 -15.5t-42 -34t-69 -43.5t-95.5 -34.5t-121 -15.5q-103 0 -184 35.5t-132.5 99t-80.5 144.5t-35 178h-211l6 41h203v10q0 124 26 231h-196l6 41h201 q62 206 209 334.5t362 128.5q62 0 116.5 -14.5t87.5 -35.5t57 -41.5t34 -35.5l10 -14l-35 -31q-3 5 -9.5 14t-30.5 31.5t-53 40t-78 31.5t-105 14q-194 0 -327.5 -116.5t-192.5 -305.5h489l-6 -41h-494q-26 -104 -26 -227v-14h487z" />
<glyph unicode="&#x2122;" horiz-adv-x="1439" d="M817 575h-45l92 654h62l180 -371l287 371h61l-92 -654h-45l84 599l-291 -379h-25l-184 379zM723 1229l-6 -41h-219l-86 -613h-43l86 613h-217l6 41h479z" />
<glyph unicode="&#x25fc;" horiz-adv-x="860" d="M0 860h860v-860h-860v860z" />
</font>
</defs>
</svg>
