<?xml version="1.0" encoding="utf-8"?>
<!-- Generator: Adobe Illustrator 19.0.0, SVG Export Plug-In . SVG Version: 6.00 Build 0)  -->
<svg version="1.1" id="Layer_1" xmlns="http://www.w3.org/2000/svg" xmlns:xlink="http://www.w3.org/1999/xlink" x="0px" y="0px"
	 viewBox="0 0 1600 900" style="enable-background:new 0 0 1600 900;" xml:space="preserve">
<style type="text/css">
	.st0{opacity:0.2;}
	.st1{fill:#FFFFFF;}
</style>
<g id="XMLID_2_" class="st0">
	<path id="XMLID_3_" class="st1" d="M657.4,124c0,0,71.9-34.5,181.9,9.5c112.7,45.1,171.1,134.9,133.2,229.7
		c-50.5,126.1-176.2,85.1-210.4,142l-9.5,15.9L648,479.2l10.7-26.8C694.5,362.9,785,396,812.2,328.1c12.5-31.3-2.7-58.1-41.1-73.5
		c-40.2-16.1-86.9-0.6-86.9-0.6L657.4,124z M681.4,548.6c40.2,16.1,59,59.9,42.9,100.2c-16.1,40.2-60.3,59.9-100.5,43.8
		c-40.2-16.1-59.5-61.2-43.4-101.4C596.5,550.9,641.2,532.5,681.4,548.6z"/>
</g>
<g id="XMLID_1_" class="st0">
	<path id="XMLID_6_" class="st1" d="M211.7,304.8c0,0,34-42.3,114.5-47.6c82.5-5.4,144.8,32.5,149.4,101.9
		c6.1,92.3-83.2,104.1-87.5,149.1l-1.1,12.6l-76.6,5l-1.3-19.6c-4.3-65.5,61-71.7,57.7-121.5c-1.5-22.9-18.7-34.9-46.9-33.1
		c-29.5,1.9-53.6,25.2-53.6,25.2L211.7,304.8z M351.4,558.6c29.5-1.9,53.9,19.5,55.8,48.9c1.9,29.5-19.4,54.5-48.9,56.5
		c-29.5,1.9-54.6-20.1-56.5-49.5C299.8,585,321.9,560.5,351.4,558.6z"/>
</g>
<g id="XMLID_9_" class="st0">
	<path id="XMLID_10_" class="st1" d="M1230.3,393.1c0,0,55.7,11.5,98.9,84c44.3,74.3,38.6,150.4-23.8,187.7
		c-83.1,49.6-136.6-28-180.6-10.5l-12.3,4.9l-41.2-69l17.7-10.6c58.9-35.2,95.9,22.7,140.7-4c20.6-12.3,23.6-34.1,8.5-59.4
		c-15.8-26.5-49-37.9-49-37.9L1230.3,393.1z M1060.4,644.1c15.8,26.5,7.5,59.5-19,75.3c-26.5,15.8-60.1,7.9-75.9-18.7
		c-15.8-26.5-7.3-60.4,19.2-76.2C1011.2,608.7,1044.5,617.6,1060.4,644.1z"/>
</g>
<g id="XMLID_13_">
</g>
<g id="XMLID_14_">
</g>
<g id="XMLID_15_">
</g>
<g id="XMLID_16_">
</g>
<g id="XMLID_17_">
</g>
<g id="XMLID_18_">
</g>
<g id="XMLID_19_">
</g>
<g id="XMLID_20_">
</g>
<g id="XMLID_21_">
</g>
<g id="XMLID_22_">
</g>
<g id="XMLID_23_">
</g>
<g id="XMLID_24_">
</g>
<g id="XMLID_25_">
</g>
<g id="XMLID_26_">
</g>
<g id="XMLID_27_">
</g>
</svg>
