<?xml version="1.0" standalone="no"?>
<!DOCTYPE svg PUBLIC "-//W3C//DTD SVG 1.1//EN" "http://www.w3.org/Graphics/SVG/1.1/DTD/svg11.dtd" >
<svg xmlns="http://www.w3.org/2000/svg" xmlns:xlink="http://www.w3.org/1999/xlink" version="1.1">
<metadata></metadata>
<defs>
<font id="textaheavy" horiz-adv-x="1222" >
<font-face units-per-em="2048" ascent="1536" descent="-512" />
<missing-glyph horiz-adv-x="421" />
<glyph horiz-adv-x="0" />
<glyph horiz-adv-x="682" />
<glyph horiz-adv-x="0" />
<glyph horiz-adv-x="0" />
<glyph unicode="&#xd;" horiz-adv-x="215" />
<glyph unicode=" "  horiz-adv-x="421" />
<glyph unicode="&#x09;" horiz-adv-x="421" />
<glyph unicode="&#xa0;" horiz-adv-x="421" />
<glyph unicode="!" horiz-adv-x="477" d="M381 1229l-62 -821h-163l-62 821h287zM90 133q0 63 43.5 107.5t104.5 44.5q63 0 107 -44.5t44 -107.5t-44 -106t-107 -43q-62 0 -105 43t-43 106z" />
<glyph unicode="&#x22;" horiz-adv-x="696" d="M332 1401l-96 -428h-146l29 428h213zM649 1401l-98 -428h-145l30 428h213z" />
<glyph unicode="#" horiz-adv-x="1337" d="M1098 1194l-68 -305h246l-33 -144h-246l-65 -296h246l-33 -144h-244l-67 -305h-154l68 305h-291l-68 -305h-153l67 305h-242l31 144h242l65 296h-239l30 144h242l68 305h153l-67 -305h291l67 305h154zM553 745l-66 -296h291l66 296h-291z" />
<glyph unicode="$" horiz-adv-x="1085" d="M68 131l135 188q14 -11 39 -27t99.5 -47t145.5 -40v313q-209 61 -306 146t-97 227q0 155 103.5 252t299.5 110v213h121v-213q76 -4 143.5 -19t109 -32.5t72 -34t43.5 -27.5l13 -12l-133 -202q-11 9 -31 22.5t-84.5 40t-132.5 35.5v-283q214 -62 313 -149.5t99 -231.5 q0 -160 -105.5 -266t-306.5 -119v-194h-121v194q-79 6 -151 24t-118.5 40t-82 43t-51.5 35zM735 338q0 46 -27.5 77.5t-99.5 61.5v-272q127 23 127 133zM362 905q0 -41 28 -69t97 -54v242q-62 -10 -93.5 -41t-31.5 -78z" />
<glyph unicode="%" horiz-adv-x="1374" d="M352 1255q129 0 205 -88t76 -215q0 -126 -76.5 -215.5t-204.5 -89.5q-127 0 -203.5 89.5t-76.5 215.5q0 127 76 215t204 88zM352 1112q-108 0 -108 -160q0 -159 108 -159q109 0 109 159q0 77 -27.5 118.5t-81.5 41.5zM1024 592q129 0 206 -89t77 -216 q0 -124 -77.5 -213.5t-205.5 -89.5q-127 0 -204 89.5t-77 213.5q0 127 77 216t204 89zM1024 449q-52 0 -80.5 -42t-28.5 -120q0 -75 28.5 -116.5t80.5 -41.5q53 0 81 41t28 117q0 162 -109 162zM1069 1229h207l-977 -1229h-209z" />
<glyph unicode="&#x26;" horiz-adv-x="1304" d="M977 645l235 -53q-36 -202 -147 -350l248 -242h-342l-76 78q-154 -98 -328 -98q-239 0 -360 98.5t-121 261.5q0 116 64 192.5t176 135.5l-23 22q-113 119 -113 250q0 135 102 225t275 90q172 0 275.5 -85.5t103.5 -219.5q0 -65 -20 -119t-59 -94.5t-80 -69t-97 -57.5 l207 -202q63 109 80 237zM569 190q91 0 170 48l-258 268q-123 -70 -123 -162q0 -68 57.5 -111t153.5 -43zM436 926q0 -38 21.5 -73t70.5 -83l7 -8q82 37 124.5 74t42.5 88q0 59 -34.5 94t-98.5 35t-98.5 -35t-34.5 -92z" />
<glyph unicode="'" horiz-adv-x="380" d="M332 1401l-96 -428h-146l29 428h213z" />
<glyph unicode="(" horiz-adv-x="589" d="M319 588q0 -428 238 -701l-160 -168q-69 74 -102 120q-225 305 -232 726v23q0 518 326 861q6 7 8 9l160 -168q-68 -81 -106 -149q-132 -234 -132 -553z" />
<glyph unicode=")" horiz-adv-x="589" d="M268 588q0 425 -230 696q-3 4 -5 6l160 168q74 -80 115 -139q216 -310 216 -731q0 -519 -323 -861l-8 -8l-160 168q235 269 235 701z" />
<glyph unicode="*" horiz-adv-x="790" d="M143 907l176 187l-247 41l53 157l223 -116l-35 251h164l-41 -253l230 118l51 -157l-248 -41l178 -187l-135 -96l-117 225l-119 -225z" />
<glyph unicode="+" horiz-adv-x="1030" d="M616 1055v-353h345v-200h-345v-336h-202v336h-342v200h342v353h202z" />
<glyph unicode="," horiz-adv-x="452" d="M367 121v-12q0 -132 -73.5 -233t-207.5 -128l-37 129q120 26 141 107q-48 11 -79 48t-31 89q0 60 41.5 101.5t101.5 41.5t102 -41.5t42 -101.5z" />
<glyph unicode="-" horiz-adv-x="778" d="M102 369v200h574v-200h-574z" />
<glyph unicode="." horiz-adv-x="446" d="M223 -20q-60 0 -101.5 40.5t-41.5 100.5t41.5 101.5t101.5 41.5t102 -41.5t42 -101.5t-42 -100.5t-102 -40.5z" />
<glyph unicode="/" horiz-adv-x="1247" d="M289 -229h-248l920 1833h243z" />
<glyph unicode="0" horiz-adv-x="1269" d="M635 -27q-134 0 -241 51.5t-174 140.5t-102.5 203.5t-35.5 245.5t35.5 245.5t102.5 203.5t174 140.5t241 51.5t241 -51.5t174.5 -140.5t102.5 -203.5t35 -245.5t-35 -245.5t-102.5 -203.5t-174.5 -140.5t-241 -51.5zM635 211q143 0 220 111t77 292t-77 292.5t-220 111.5 t-221 -111.5t-78 -292.5t77.5 -292t221.5 -111z" />
<glyph unicode="1" horiz-adv-x="669" d="M31 1012v217h508v-1229h-248v1012h-260z" />
<glyph unicode="2" horiz-adv-x="1058" d="M88 0v178l477 463q57 57 78 99t21 98q0 75 -54 125.5t-145 50.5q-55 0 -109 -21t-82.5 -40.5t-69.5 -52.5q-7 -6 -11 -9l-132 199q6 7 18.5 18t55 39.5t89 50t120 39.5t150.5 18q216 0 339 -111.5t123 -275.5q0 -100 -32 -177.5t-107 -149.5l-334 -324h488v-217h-883z " />
<glyph unicode="3" horiz-adv-x="1052" d="M475 555h-162v150l291 307h-506v217h836v-187l-283 -307q165 -26 241.5 -111.5t76.5 -244.5q0 -82 -29.5 -152.5t-87 -126.5t-153 -88t-218.5 -32q-81 0 -154.5 17t-119.5 41t-80 48.5t-49 41.5l-15 17l130 181q5 -5 13.5 -13t37.5 -29t60 -37t78 -29t95 -13 q113 0 169 50t56 130t-55.5 125t-171.5 45z" />
<glyph unicode="4" horiz-adv-x="1171" d="M43 266v183l649 780h228v-748h192v-215h-192v-266h-248v266h-629zM346 489v-8h326v400l-285 -349q-9 -12 -19 -22.5t-16 -15.5z" />
<glyph unicode="5" horiz-adv-x="1036" d="M895 1012h-518l-6 -244q52 6 116 6q246 0 364 -102t118 -281q0 -184 -123.5 -299t-362.5 -115q-80 0 -152.5 17.5t-119 42t-82 49t-51.5 42.5l-15 17l130 181q5 -5 13.5 -13t37.5 -29t60 -37t78 -29t95 -13q110 0 167.5 47.5t57.5 132.5q0 83 -67.5 132.5t-210.5 49.5 q-71 0 -136.5 -10t-96.5 -19.5t-31 -11.5l-27 19l19 684h743v-217z" />
<glyph unicode="6" horiz-adv-x="1130" d="M365 707v-27q98 98 258 98q196 0 316 -102.5t120 -278.5q0 -185 -134 -302.5t-333 -117.5q-84 0 -157.5 20.5t-138.5 66.5t-111.5 114.5t-73.5 172t-27 231.5q0 307 139 485t381 178q78 0 147.5 -16t113.5 -38.5t76 -44.5t46 -38l14 -16l-137 -197q-66 57 -98 75 q-70 40 -160 40q-113 0 -177 -74.5t-64 -228.5zM371 391h-2q15 -93 72.5 -141.5t144.5 -48.5q93 0 151 55.5t58 136.5q0 80 -56.5 133.5t-148.5 53.5q-93 0 -153 -53t-66 -136z" />
<glyph unicode="7" horiz-adv-x="964" d="M55 1012v217h881v-176l-524 -1053h-285l516 1012h-588z" />
<glyph unicode="8" horiz-adv-x="1112" d="M557 -27q-220 0 -346.5 109t-126.5 274q0 189 158 287q-125 94 -125 258q0 154 114 254t326 100q211 0 324.5 -100t113.5 -254q0 -163 -127 -258q77 -46 118.5 -120t41.5 -167q0 -164 -126 -273.5t-345 -109.5zM766 367q0 77 -58 128.5t-151 51.5q-94 0 -152.5 -52 t-58.5 -128q0 -75 59 -127t152 -52t151 52t58 127zM557 725q83 0 133.5 45t50.5 111t-50.5 111.5t-133.5 45.5t-134.5 -45.5t-51.5 -111.5t51.5 -111t134.5 -45z" />
<glyph unicode="9" horiz-adv-x="1128" d="M528 209q114 0 176.5 75t59.5 230v27q-102 -99 -258 -99q-196 0 -315 102.5t-119 278.5q0 185 133 303.5t332 118.5q106 0 195 -33.5t161 -103.5t113 -189.5t41 -279.5q0 -308 -137 -487t-380 -179q-78 0 -147.5 16t-113 38.5t-75.5 45t-46 38.5l-13 16l135 197 q66 -57 98 -75q70 -40 160 -40zM758 829q-15 94 -71 142.5t-144 48.5q-92 0 -149.5 -55t-57.5 -138q0 -80 56 -133t149 -53q92 0 152 53t65 135z" />
<glyph unicode=":" horiz-adv-x="483" d="M129 92q-12 46 11.5 87.5t70.5 53.5q46 14 88 -10t55 -71q12 -47 -12 -88.5t-70 -53.5q-47 -13 -89 11t-54 71zM129 700q-12 48 11.5 90t70.5 54q46 12 87.5 -12t55.5 -70q12 -47 -12 -88.5t-70 -55.5q-47 -12 -89 12t-54 70z" />
<glyph unicode=";" horiz-adv-x="499" d="M393 121v-12q0 -132 -72.5 -233t-205.5 -128l-39 129q120 26 141 107q-48 11 -78 48t-30 89q0 60 40.5 101.5t100.5 41.5t101.5 -41.5t41.5 -101.5zM250 590q-60 0 -100.5 40.5t-40.5 100.5t40.5 101.5t100.5 41.5t101.5 -41.5t41.5 -101.5t-41.5 -100.5t-101.5 -40.5z " />
<glyph unicode="&#x3c;" horiz-adv-x="755" d="M72 522v183l557 339v-266l-353 -166l353 -170v-264z" />
<glyph unicode="=" horiz-adv-x="927" d="M113 694v201h704v-201h-704zM113 305v199h704v-199h-704z" />
<glyph unicode="&#x3e;" horiz-adv-x="755" d="M684 705v-183l-557 -344v264l352 170l-352 166v266z" />
<glyph unicode="?" horiz-adv-x="907" d="M180 938l-125 199q5 5 14 13t42 28.5t71 36.5t99.5 29t128.5 13q192 0 310 -91.5t118 -247.5q0 -68 -22 -125t-55.5 -92.5t-73 -69.5t-74 -59t-60 -59t-29.5 -71l-6 -45h-194v68q0 59 24 107t58.5 81t68.5 64t58 70.5t24 86.5q0 65 -46.5 102.5t-127.5 37.5 q-51 0 -102 -19t-76 -38zM279 129q0 60 41.5 101.5t101.5 41.5q61 0 102 -41.5t41 -101.5q0 -61 -41 -103t-102 -42q-60 0 -101.5 42.5t-41.5 102.5z" />
<glyph unicode="@" horiz-adv-x="2039" d="M1511 104q-68 0 -123 18t-86 42.5t-53 55t-29 50.5t-10 35h-10q-11 -20 -24.5 -39t-41.5 -48t-61 -49.5t-83.5 -36t-106.5 -15.5q-161 0 -262 103.5t-101 277.5q0 116 37 214.5t99 165t145 103.5t174 37q199 0 262 -162l31 141h205l-56 -475q-6 -41 -6 -92 q0 -76 46.5 -123t123.5 -47q111 0 178.5 103t67.5 282q0 90 -23 181t-66.5 176.5t-111.5 159t-153 129t-196.5 87t-236.5 31.5q-183 0 -343 -68.5t-270 -183t-173.5 -268t-63.5 -320.5q0 -172 67 -328.5t180 -269.5t268.5 -180t326.5 -67q72 0 143 12t121 29t89.5 34 t58.5 29l20 12l49 -104q-7 -5 -20.5 -13.5t-60 -30.5t-98 -39t-133.5 -30.5t-169 -13.5q-167 0 -318 50.5t-267 141t-201.5 210t-130.5 262t-45 292.5q0 154 44.5 298.5t130.5 264t202.5 209t269.5 139.5t323 50q195 0 367.5 -70t294 -188.5t192 -280t70.5 -338.5 q0 -153 -52.5 -275.5t-156.5 -196t-244 -73.5zM958 350q100 0 164 75.5t64 182.5q0 85 -45.5 132.5t-128.5 47.5q-94 0 -159 -70.5t-65 -182.5q0 -86 46.5 -135.5t123.5 -49.5z" />
<glyph unicode="A" d="M741 1229l488 -1229h-264l-88 238h-531l-88 -238h-264l487 1229h260zM610 954l-190 -516h383z" />
<glyph unicode="B" horiz-adv-x="1230" d="M1155 358q0 -172 -117.5 -265t-328.5 -93h-570v1229h555q209 0 317.5 -87t108.5 -247q0 -84 -42 -151.5t-115 -104.5v-12q91 -28 141.5 -98.5t50.5 -170.5zM709 524h-322v-307h324q79 0 129.5 43t50.5 111q0 66 -52 109.5t-130 43.5zM860 862q0 70 -46 110t-124 40h-303 v-295h299q77 0 125.5 41.5t48.5 103.5z" />
<glyph unicode="C" horiz-adv-x="1138" d="M967 315l143 -190q-5 -6 -15.5 -16.5t-48.5 -37t-82 -47t-117 -37t-153 -16.5q-142 0 -260.5 50.5t-198 138t-123.5 204.5t-44 250t44 249.5t123.5 203.5t198 137.5t260.5 50.5q80 0 152 -15.5t118 -37.5t81 -44.5t50 -37.5l15 -16l-143 -191q-4 4 -11.5 11t-33.5 25.5 t-55 32t-75.5 25t-95.5 11.5q-163 0 -267.5 -114t-104.5 -290t104.5 -290.5t267.5 -114.5q49 0 95 11t76.5 26.5t54 31t34.5 26.5z" />
<glyph unicode="D" horiz-adv-x="1300" d="M1231 614q0 -272 -175 -443t-464 -171h-453v1229h453q289 0 464 -171t175 -444zM575 1012h-188v-795h188q112 0 202 46.5t144 137.5t54 213q0 187 -113 292.5t-287 105.5z" />
<glyph unicode="E" horiz-adv-x="1099" d="M924 723v-201h-537v-305h637v-217h-885v1229h885v-217h-637v-289h537z" />
<glyph unicode="F" horiz-adv-x="1095" d="M924 721v-201h-537v-520h-248v1229h889v-217h-641v-291h537z" />
<glyph unicode="G" horiz-adv-x="1310" d="M659 510v203h603v-150q0 -268 -155 -429t-419 -161q-188 0 -331 87t-216 231.5t-73 322.5q0 133 43.5 249.5t122.5 203.5t197.5 137.5t260.5 50.5q87 0 164 -16t126 -38.5t85.5 -45.5t52.5 -39l15 -16l-150 -191q-4 4 -12 11.5t-36 26.5t-59.5 33t-82.5 26t-105 12 q-162 0 -264 -114t-102 -290t101.5 -290.5t262.5 -114.5q136 0 216 79.5t85 205.5v16h-330z" />
<glyph unicode="H" horiz-adv-x="1341" d="M1202 1229v-1231h-250v512h-565v-512h-248v1231h248v-516h565v516h250z" />
<glyph unicode="I" horiz-adv-x="528" d="M387 1229v-1229h-248v1229h248z" />
<glyph unicode="J" horiz-adv-x="931" d="M25 84l118 199q9 -8 25 -19t67.5 -30t104.5 -19q110 0 162 60t53 192v762h248v-811q-1 -94 -28.5 -174t-81 -141.5t-142 -96.5t-203.5 -35q-61 0 -117.5 12.5t-90 26t-64.5 34.5t-37.5 27t-13.5 13z" />
<glyph unicode="K" horiz-adv-x="1230" d="M387 1229v-570l524 570h299v-27l-456 -495l458 -680v-27h-276q-223 332 -350 522l-199 -215v-307h-248v1229h248z" />
<glyph unicode="L" horiz-adv-x="1019" d="M965 0h-826v1229h248v-1012h578v-217z" />
<glyph unicode="M" horiz-adv-x="1490" d="M1106 0v770l-311 -410h-99l-311 410v-770h-246v1229h197l409 -551l410 551h195l2 -1229h-246z" />
<glyph unicode="N" horiz-adv-x="1366" d="M1227 1229v-1229h-191l-649 797v-797h-248v1229h191l649 -789v789h248z" />
<glyph unicode="O" horiz-adv-x="1380" d="M688 -29q-136 0 -253 51t-197.5 138t-126 204.5t-45.5 249.5t45.5 249.5t126 204t197.5 137t253 50.5q183 0 327 -86.5t221 -232t77 -322.5t-77 -323t-221 -233t-327 -87zM688 211q161 0 265 114t104 289t-104 289.5t-265 114.5q-158 0 -261 -114.5t-103 -289.5t103 -289 t261 -114z" />
<glyph unicode="P" horiz-adv-x="1183" d="M664 1229q213 0 342 -113t129 -299q0 -195 -128.5 -306.5t-344.5 -111.5h-275v-399h-248v1229h525zM879 815q0 97 -62.5 147t-167.5 50h-262v-398h262q105 0 167.5 51t62.5 150z" />
<glyph unicode="Q" horiz-adv-x="1380" d="M688 -29q-136 0 -253 51t-197.5 138t-126 204.5t-45.5 249.5t45.5 249.5t126 204t197.5 137t253 50.5q183 0 327 -86.5t221 -232t77 -322.5q0 -184 -84 -334.5t-232 -232.5l146 -264h-275l-98 194q-40 -6 -82 -6zM688 211q161 0 265 114t104 289t-104 289.5t-265 114.5 q-158 0 -261 -114.5t-103 -289.5t103 -289t261 -114z" />
<glyph unicode="R" horiz-adv-x="1226" d="M139 1229h525q213 0 342 -113t129 -299q0 -133 -65 -229.5t-179 -143.5v-16l285 -403v-25h-279l-276 406h-234v-406h-248v1229zM879 815q0 97 -62.5 147t-167.5 50h-262v-394h268q100 0 162 51t62 146z" />
<glyph unicode="S" horiz-adv-x="1075" d="M61 131l136 188q6 -5 18 -13t49.5 -28t75.5 -35.5t93.5 -28.5t107.5 -13q95 0 141.5 36.5t46.5 100.5q0 61 -50 99t-196 81q-209 61 -307 146t-98 227q0 166 119 265t342 99q89 0 167.5 -13t127 -31.5t84 -37.5t50.5 -32l15 -13l-133 -202q-5 4 -14.5 11t-41 24.5t-65 31 t-85.5 24.5t-105 11q-89 0 -136 -32.5t-47 -90.5q0 -54 50 -86.5t186 -73.5q220 -62 321 -150.5t101 -234.5q0 -170 -119.5 -278.5t-345.5 -108.5q-91 0 -175 16.5t-138.5 39.5t-96 46t-59.5 39z" />
<glyph unicode="T" horiz-adv-x="1077" d="M49 1012v217h979v-217h-366v-1012h-248v1012h-365z" />
<glyph unicode="U" horiz-adv-x="1304" d="M651 -29q-239 0 -383.5 155.5t-144.5 397.5v705h248v-705q0 -139 72.5 -226t207.5 -87q139 0 210 86t71 227v705h248v-705q0 -159 -61.5 -283.5t-183 -197t-284.5 -72.5z" />
<glyph unicode="V" d="M481 0l-487 1229h264l352 -955l355 955h264l-488 -1229h-260z" />
<glyph unicode="W" horiz-adv-x="1640" d="M1051 0l-234 791l-225 -791h-193l-374 1229h268l205 -766l221 766h196l224 -768l207 768h270l-375 -1229h-190z" />
<glyph unicode="X" horiz-adv-x="1167" d="M1135 1229l-365 -600l377 -629h-301l-213 393l-49 101l-49 -101l-211 -393h-299l370 629l-362 600h299l207 -373l45 -102l49 102l205 373h297z" />
<glyph unicode="Y" horiz-adv-x="1110" d="M606 801l240 428h272l-438 -752v-477h-248v473l-438 756h270l244 -428l49 -113z" />
<glyph unicode="Z" horiz-adv-x="1114" d="M61 0v182l654 830h-631v217h958v-191l-641 -821h637v-217h-977z" />
<glyph unicode="[" horiz-adv-x="675" d="M113 -266v1700h528v-201h-295v-1299h295v-200h-528z" />
<glyph unicode="\" horiz-adv-x="798" d="M500 -262l-445 1896h244l444 -1896h-243z" />
<glyph unicode="]" horiz-adv-x="675" d="M35 -266v200h295v1299h-295v201h528v-1700h-528z" />
<glyph unicode="^" horiz-adv-x="823" d="M549 1018l-141 227l-142 -227h-186l262 401h131l268 -401h-192z" />
<glyph unicode="_" horiz-adv-x="1075" d="M84 -283v201h905v-201h-905z" />
<glyph unicode="`" horiz-adv-x="571" d="M268 1018l-192 276l278 41l80 -317h-166z" />
<glyph unicode="a" horiz-adv-x="956" d="M854 530v-530h-168l-33 109h-10q-80 -129 -276 -129q-146 0 -231 76t-85 196q0 133 100 208t291 75q94 0 176 -23v27q0 77 -51.5 111t-152.5 34q-56 0 -112.5 -15t-85.5 -31l-28 -15l-77 180q5 3 15 8.5t43.5 19t71 23.5t97 18.5t121.5 8.5q191 0 293 -95t102 -256z M430 147q77 0 131 44t57 112v70q-50 26 -147 26q-91 0 -139.5 -34.5t-48.5 -96.5q0 -54 40 -87.5t107 -33.5z" />
<glyph unicode="b" horiz-adv-x="1064" d="M111 0v1239h245v-475h11q2 5 6.5 13t24 28t44.5 35.5t70.5 28t99.5 12.5q167 0 278 -127t111 -326q0 -202 -113 -325t-286 -123q-60 0 -110.5 15t-80.5 36t-51.5 42.5t-29.5 36.5l-8 15h-11l-35 -125h-165zM344 432q0 -114 57.5 -182t149.5 -68q89 0 146 70.5t57 179.5 t-57 177.5t-146 68.5q-92 0 -149.5 -66.5t-57.5 -179.5z" />
<glyph unicode="c" horiz-adv-x="835" d="M514 -20q-202 0 -327.5 126.5t-125.5 323.5t125.5 324t327.5 127q52 0 98.5 -8t76.5 -19.5t52.5 -23t32.5 -19.5l10 -8l-63 -176q-9 6 -25 14.5t-64.5 22.5t-94.5 14q-100 0 -164 -67.5t-64 -180.5q0 -115 63.5 -181.5t164.5 -66.5q46 0 92 13t69 25l23 13l61 -174 q-4 -3 -10.5 -8.5t-31.5 -19t-53 -24t-75 -19t-98 -8.5z" />
<glyph unicode="d" horiz-adv-x="1067" d="M698 770h11v469h245v-1239h-161l-39 119h-11q-3 -6 -9 -15t-29 -33t-52 -42.5t-80 -33.5t-110 -15q-174 0 -288 123t-114 325q0 199 112.5 326t281.5 127q52 0 96 -11.5t70 -27.5t44.5 -32.5t25.5 -27.5zM723 432q0 113 -58 179.5t-151 66.5q-89 0 -146 -68.5t-57 -177.5 t57 -179.5t146 -70.5q93 0 151 68t58 182z" />
<glyph unicode="e" horiz-adv-x="942" d="M760 242l86 -162q-4 -4 -12.5 -11t-38.5 -25.5t-64.5 -32t-91 -25t-117.5 -11.5q-212 0 -336.5 127.5t-124.5 327.5q0 195 118.5 323t307.5 128q187 0 294.5 -116.5t107.5 -311.5l-2 -68h-588q10 -108 72.5 -161.5t167.5 -53.5q60 0 115.5 18t80.5 36zM481 696 q-69 0 -115 -41.5t-61 -124.5h344q-8 79 -51 122.5t-117 43.5z" />
<glyph unicode="f" horiz-adv-x="686" d="M666 670h-228v-670h-245v670h-148v190h148v51q0 162 84.5 252t242.5 90q56 0 107 -10.5t75 -20.5l23 -10l-76 -182q-37 19 -94 19q-54 0 -85.5 -34t-31.5 -91v-64h228v-190z" />
<glyph unicode="g" horiz-adv-x="970" d="M924 676h-113v-4q27 -25 27 -109q0 -116 -94.5 -196t-270.5 -80q-83 0 -154 22q-24 -13 -32 -26t-8 -33q0 -21 12 -34t61.5 -24t143.5 -16q243 -10 339.5 -69.5t96.5 -188.5q0 -125 -119 -210t-336 -85q-219 0 -323.5 62t-104.5 168q0 120 131 192q-114 56 -114 176 q0 99 122 166q-79 76 -79 188q0 133 99 217.5t265 84.5q69 0 135 -17h316v-184zM496 -12q-57 2 -127 10q-36 -19 -60 -50t-24 -69q0 -44 47 -71t145 -27q106 0 159.5 28.5t53.5 75.5q0 45 -41.5 72t-152.5 31zM473 717q-65 0 -103 -39.5t-38 -97.5q0 -59 38 -98.5t103 -39.5 q68 0 108 39.5t40 98.5q0 58 -40 97.5t-108 39.5z" />
<glyph unicode="h" horiz-adv-x="1052" d="M113 0v1239h247v-459h9q76 103 241 103q157 0 249.5 -104t92.5 -279v-498h-245v475q0 81 -47.5 136t-124.5 55q-75 0 -122.5 -49.5t-52.5 -114.5v-504h-247z" />
<glyph unicode="i" horiz-adv-x="473" d="M238 995q-62 0 -103 39.5t-41 100.5t41 101t103 40t103.5 -40t41.5 -101t-41.5 -100.5t-103.5 -39.5zM113 0v860h245v-860h-245z" />
<glyph unicode="j" horiz-adv-x="475" d="M-4 -319v204h41q38 0 57 21t19 57v897h247v-909q0 -124 -68.5 -197t-193.5 -73h-102zM236 995q-61 0 -102.5 39.5t-41.5 100.5t41.5 101t102.5 40q62 0 104.5 -40t42.5 -101t-42.5 -100.5t-104.5 -39.5z" />
<glyph unicode="k" horiz-adv-x="958" d="M639 860h297l-315 -375l327 -485h-297l-221 330l-72 -82v-248h-245v1239h245v-727z" />
<glyph unicode="l" horiz-adv-x="473" d="M115 0v1239h245v-1239h-245z" />
<glyph unicode="m" horiz-adv-x="1640" d="M950 494v-494h-245v489q0 78 -46 128.5t-127 50.5q-79 0 -125 -47.5t-49 -116.5v-504h-245v860h153l35 -121h14q90 142 277 142q101 0 178.5 -39.5t122.5 -110.5h12q93 152 281 152q164 0 259 -104t95 -279v-500h-246v479q0 82 -45 135.5t-125 53.5q-83 0 -128.5 -50.5 t-45.5 -123.5z" />
<glyph unicode="n" horiz-adv-x="1054" d="M358 492v-492h-245v860h153l35 -121h14q51 75 115 109.5t164 34.5q165 0 261.5 -104.5t96.5 -278.5v-500h-245v479q0 81 -47 135t-128 54q-80 0 -127 -53t-47 -123z" />
<glyph unicode="o" horiz-adv-x="1019" d="M958 426q0 -199 -129.5 -322.5t-318.5 -123.5q-191 0 -321 123.5t-130 322.5q0 201 130.5 328t320.5 127q189 0 318.5 -127t129.5 -328zM510 174q91 0 149 69.5t58 186.5q0 114 -58.5 185t-148.5 71q-93 0 -151 -70.5t-58 -185.5q0 -117 58 -186.5t151 -69.5z" />
<glyph unicode="p" horiz-adv-x="1064" d="M369 90h-11v-409h-245v1179h157l37 -121h12q3 6 9.5 15.5t30.5 34t53.5 43t81 34t110.5 15.5q173 0 286.5 -123.5t113.5 -325.5q0 -199 -112 -325.5t-280 -126.5q-53 0 -97.5 11.5t-70.5 27.5t-44 32t-24 27zM346 428q0 -112 57 -179t148 -67t148 68.5t57 177.5 t-57.5 179.5t-147.5 70.5q-91 0 -148 -68t-57 -182z" />
<glyph unicode="q" horiz-adv-x="1064" d="M954 860v-1179h-245v415h-11q-2 -5 -7 -12.5t-24 -27.5t-44 -35.5t-70 -28t-98 -12.5q-169 0 -281.5 126.5t-112.5 325.5q0 202 114 325.5t288 123.5q61 0 112.5 -15.5t82 -38t52 -45t30.5 -38.5l8 -15h8l39 131h159zM723 428q0 114 -58 182t-151 68q-89 0 -146 -70.5 t-57 -179.5t57 -177.5t146 -68.5q93 0 151 66.5t58 179.5z" />
<glyph unicode="r" horiz-adv-x="626" d="M600 860v-207h-45q-87 0 -142 -56.5t-55 -152.5v-444h-245v860h153l35 -127h12q68 127 240 127h47z" />
<glyph unicode="s" horiz-adv-x="868" d="M61 76l80 168q5 -3 14.5 -9t40 -20.5t61.5 -25.5t76 -20t87 -9q131 0 131 73q0 28 -26.5 47.5t-69 32.5t-93.5 26t-102.5 33.5t-94 49.5t-69 79t-26.5 117q0 116 89.5 189.5t254.5 73.5q109 0 202.5 -19t132.5 -38l39 -19l-75 -182q-5 3 -13.5 8t-37 18t-58 23t-74 18 t-88.5 8q-125 0 -125 -71q0 -24 21 -41t55.5 -27t78.5 -22t90 -23.5t90 -33t78.5 -50t55.5 -75.5t21 -107q0 -120 -91.5 -194t-281.5 -74q-73 0 -138 10t-106 24t-72 28t-44 24z" />
<glyph unicode="t" horiz-adv-x="700" d="M29 860h149v262h246v-262h211v-190h-211v-385q0 -95 92 -95q22 0 45 7t35 15l12 7l70 -170q-35 -26 -95 -47.5t-126 -21.5q-143 0 -211 79.5t-68 216.5v394h-149v190z" />
<glyph unicode="u" horiz-adv-x="1050" d="M692 362v498h246v-860h-164l-43 117h-10q-95 -137 -266 -137q-163 0 -258 103t-95 277v500h246v-479q0 -87 43 -141t123 -54q83 0 130.5 54.5t47.5 121.5z" />
<glyph unicode="v" horiz-adv-x="944" d="M385 0l-385 860h268l183 -500q14 -40 14 -69h12q0 20 17 69l182 500h268l-385 -860h-174z" />
<glyph unicode="w" horiz-adv-x="1366" d="M1358 860l-311 -860h-209l-133 463q-17 62 -17 96h-10q0 -27 -19 -96l-133 -463h-207l-311 860h260l140 -500q12 -46 12 -69h12q0 11 17 76l131 493h211l129 -493q16 -50 16 -76h12q0 15 13 69l141 500h256z" />
<glyph unicode="x" horiz-adv-x="935" d="M27 0l284 438l-274 422h276l156 -270h6l156 270h274l-289 -422l299 -438h-276l-164 291h-6l-168 -291h-274z" />
<glyph unicode="y" horiz-adv-x="933" d="M930 860l-504 -1179h-254l184 389l-354 790h270l183 -500q16 -46 16 -69h12q0 26 15 69l182 500h250z" />
<glyph unicode="z" horiz-adv-x="876" d="M809 0h-741v135l421 527h-417v198h737v-123l-414 -538h414v-199z" />
<glyph unicode="{" horiz-adv-x="622" d="M33 680h47q60 0 88.5 37.5t28.5 120.5v315q0 294 333 311l35 -204q-68 -11 -93.5 -34.5t-25.5 -88.5v-334q0 -80 -33 -134.5t-94 -74.5v-19q61 -19 94 -73t33 -133v-334q0 -64 26 -87.5t93 -33.5l-35 -205q-333 14 -333 311v314q0 83 -28.5 121.5t-88.5 38.5h-47v186z " />
<glyph unicode="|" horiz-adv-x="450" d="M338 1407v-1669h-225v1669h225z" />
<glyph unicode="}" horiz-adv-x="622" d="M543 680h47v-186h-47q-60 0 -88.5 -38.5t-28.5 -121.5v-314q0 -297 -334 -311l-35 205q67 10 93 33.5t26 87.5v334q0 79 33 133t94 73v19q-61 20 -94 74.5t-33 134.5v334q0 65 -25.5 88.5t-93.5 34.5l35 204q334 -17 334 -311v-315q0 -83 28.5 -120.5t88.5 -37.5z" />
<glyph unicode="~" horiz-adv-x="970" d="M631 678q41 0 79.5 12t57.5 24l18 13l80 -152q-3 -3 -9.5 -9t-28.5 -20t-47 -25t-64 -20t-80 -9q-57 0 -148 32.5t-153 32.5q-41 0 -80 -12.5t-58 -25.5l-18 -13l-78 151q4 3 10.5 9t29 21t47.5 26t64 20.5t79 9.5q57 0 147.5 -32.5t151.5 -32.5z" />
<glyph unicode="&#xa1;" horiz-adv-x="456" d="M309 461l62 -821h-285l61 821h162zM78 735q0 62 44 106t107 44q61 0 104.5 -44t43.5 -106q0 -63 -43 -107t-105 -44q-63 0 -107 44t-44 107z" />
<glyph unicode="&#xa2;" horiz-adv-x="876" d="M383 0l23 174q-154 37 -243 154.5t-89 281.5q0 194 124 321t324 130l23 168h104l-22 -176q50 -8 93 -24.5t61 -28.5l18 -13l-64 -180q-57 35 -135 47l-65 -492h16q46 0 92 13t69 26l23 13l62 -178q-4 -3 -11 -8t-32.5 -18.5t-54 -23.5t-74.5 -18t-95 -8h-22l-21 -160 h-104zM322 610q0 -76 29.5 -132.5t82.5 -86.5l60 461q-77 -19 -124.5 -83.5t-47.5 -158.5z" />
<glyph unicode="&#xa3;" horiz-adv-x="1050" d="M954 217v-217h-848v217q4 1 15.5 7.5t31 22.5t36.5 36t29.5 51.5t12.5 66.5q0 25 -16 111h-125v170h86q-20 95 -20 170q0 167 123 279t339 112q67 0 128.5 -13.5t102.5 -32.5t72 -37.5t45 -31.5l15 -14l-147 -203q-3 4 -9.5 10t-27 22t-43 28.5t-57 22.5t-70.5 10 q-95 0 -145 -51t-50 -134q0 -57 17 -137h366v-170h-332q13 -63 13 -111q0 -96 -52 -184h510z" />
<glyph unicode="&#xa5;" horiz-adv-x="1241" d="M672 801l239 428h273l-346 -594h235v-172h-328v-111h328v-170h-328v-182h-247v182h-326v170h326v111h-326v172h231l-344 594h271l243 -428l50 -113z" />
<glyph unicode="&#xa6;" horiz-adv-x="471" d="M348 676h-225v702h225v-702zM348 -313h-225v700h225v-700z" />
<glyph unicode="&#xa7;" horiz-adv-x="1107" d="M70 94l106 170q6 -4 17.5 -10t49 -22t77.5 -28t101 -22t122 -10q192 0 192 82q0 44 -45.5 69.5t-181.5 63.5q-64 17 -108.5 32t-98 39.5t-86 51.5t-54.5 67t-22 87q0 95 72 143q-98 58 -98 172q0 128 113.5 202t338.5 74q83 0 158 -10t123 -24.5t84 -29t52 -24.5l15 -10 l-106 -178q-5 3 -15 8.5t-43 19.5t-68.5 24.5t-90 19t-109.5 8.5q-168 0 -168 -80q0 -40 40.5 -63.5t142.5 -51.5q51 -14 83.5 -23t81.5 -26t80 -31.5t67 -37t56.5 -46t34.5 -54.5t14 -66q0 -100 -67 -162q96 -66 96 -166q0 -122 -121 -201.5t-356 -79.5q-90 0 -172.5 12.5 t-136 30.5t-94 36.5t-58.5 31.5zM496 707q-10 3 -41 10t-47 12q-25 -10 -25 -53q0 -74 209 -131q11 -3 60 -17t73 -22q25 25 25 59q0 25 -17.5 45.5t-56 38t-77 29.5t-103.5 29z" />
<glyph unicode="&#xa8;" horiz-adv-x="931" d="M160 1446q0 51 36.5 88t84.5 37q50 0 87.5 -37t37.5 -88q0 -49 -37.5 -86t-87.5 -37q-48 0 -84.5 37t-36.5 86zM520 1446q0 51 36.5 88t84.5 37q51 0 88 -37t37 -88q0 -50 -37 -86.5t-88 -36.5q-48 0 -84.5 37t-36.5 86z" />
<glyph unicode="&#xa9;" horiz-adv-x="1382" d="M692 1239q140 0 256.5 -49.5t194 -135t120 -199.5t42.5 -243q0 -128 -42.5 -241.5t-120 -198.5t-194 -134.5t-256.5 -49.5q-185 0 -326.5 85t-214.5 226t-73 313q0 173 73 314.5t214.5 227t326.5 85.5zM692 1153q-119 0 -218.5 -42.5t-165.5 -116t-102 -172t-36 -210.5 q0 -149 61.5 -270t182 -194.5t278.5 -73.5t279.5 73.5t183.5 195t62 269.5q0 112 -36.5 210.5t-103 172t-166.5 116t-219 42.5zM928 866l-86 -121q-5 5 -14.5 12t-41.5 19t-67 12q-77 0 -123.5 -49t-46.5 -125q0 -77 46.5 -125.5t123.5 -48.5q35 0 65.5 11t43.5 23l14 11 l86 -123q-3 -3 -8.5 -8t-25 -18t-42.5 -23t-61.5 -18t-81.5 -8q-152 0 -243 94t-91 233q0 141 91 235.5t243 94.5q43 0 81 -8t62 -19.5t42 -23t26 -19.5z" />
<glyph unicode="&#xaa;" horiz-adv-x="798" d="M59 760q0 101 79.5 160t213.5 59q116 0 170 -43v16q0 81 -37.5 120.5t-124.5 39.5q-93 0 -182 -43l-51 133q13 6 36.5 15t91 24.5t130.5 15.5q163 0 236 -78.5t73 -230.5v-387h-127l-24 72h-13q-58 -88 -219 -88q-107 0 -179.5 60.5t-72.5 154.5zM233 768q0 -44 37 -73 t101 -29q62 0 104 30t47 72v16q-4 42 -44 65t-103 23q-67 0 -104.5 -28.5t-37.5 -75.5z" />
<glyph unicode="&#xab;" horiz-adv-x="1013" d="M66 403v46l260 387h204v-19l-251 -381v-16l251 -385v-19h-204zM483 403v46l260 387h205v-19l-252 -381v-16l252 -385v-19h-205z" />
<glyph unicode="&#xac;" horiz-adv-x="1142" d="M84 508v201h940v-709h-203v508h-737z" />
<glyph unicode="&#xad;" horiz-adv-x="778" d="M102 369v200h574v-200h-574z" />
<glyph unicode="&#xae;" horiz-adv-x="1095" d="M1012 778q0 -131 -54.5 -238.5t-162 -173t-248.5 -65.5q-140 0 -246.5 66t-160.5 173.5t-54 237.5q0 131 54 238.5t160.5 173t246.5 65.5q141 0 248.5 -65.5t162 -173t54.5 -238.5zM920 778q0 168 -103.5 278.5t-269.5 110.5q-165 0 -267 -108.5t-102 -280.5 q0 -167 103 -278t266 -111q166 0 269.5 110.5t103.5 278.5zM365 993h198q82 0 131 -41t49 -110q0 -82 -71 -127l78 -113v-22h-113l-76 108h-88v-108h-108v413zM561 893h-88v-109h88q31 0 49.5 14t18.5 40q0 55 -68 55z" />
<glyph unicode="&#xaf;" horiz-adv-x="1077" d="M248 1368v150h604v-150h-604z" />
<glyph unicode="&#xb0;" horiz-adv-x="589" d="M295 1378q105 0 171 -63.5t66 -157.5t-66 -157.5t-171 -63.5t-171.5 63.5t-66.5 157.5t66.5 157.5t171.5 63.5zM295 1255q-46 0 -73 -28t-27 -70q0 -41 27 -68.5t73 -27.5q45 0 72.5 27.5t27.5 68.5q0 42 -27.5 70t-72.5 28z" />
<glyph unicode="&#xb1;" horiz-adv-x="1064" d="M637 379h-203v309h-325v199h325v323h203v-323h317v-199h-317v-309zM954 250v-201h-845v201h845z" />
<glyph unicode="&#xb2;" horiz-adv-x="688" d="M98 700v127l254 224q56 48 56 96q0 37 -25.5 60.5t-69.5 23.5q-29 0 -58 -12t-44 -23t-41 -33l-90 129q4 4 10.5 10t30 22.5t49.5 29t67.5 22.5t84.5 10q124 0 191 -65t67 -160q0 -115 -82 -186l-156 -133h252v-142h-496z" />
<glyph unicode="&#xb3;" horiz-adv-x="659" d="M90 1225v143h469v-106l-121 -154q73 -19 111.5 -67t38.5 -121q0 -105 -71.5 -170.5t-205.5 -65.5q-151 0 -241 90l86 119q6 -6 18 -15.5t50.5 -25.5t80.5 -16q56 0 84.5 23.5t28.5 60.5q0 79 -103 79h-88v80l117 146h-254z" />
<glyph unicode="&#xb4;" horiz-adv-x="571" d="M479 1288l-221 -270h-162l103 297z" />
<glyph unicode="&#xb5;" horiz-adv-x="1058" d="M700 362v498h246v-860h-164l-43 117h-10q-95 -137 -266 -137q-50 0 -111 14l4 -256h-245v1122h245v-479q0 -87 43 -141t123 -54q83 0 130.5 54.5t47.5 121.5z" />
<glyph unicode="&#xb6;" horiz-adv-x="1120" d="M739 -168v418h-114q-164 0 -290.5 56t-201 170.5t-74.5 273.5q0 154 74 264.5t200 163.5t290 53h364v-1399h-248z" />
<glyph unicode="&#xb7;" horiz-adv-x="460" d="M80 735q0 63 43.5 107.5t105.5 44.5q63 0 106.5 -44.5t43.5 -107.5t-43.5 -106t-106.5 -43q-62 0 -105.5 43t-43.5 106z" />
<glyph unicode="&#xb8;" horiz-adv-x="421" d="M145 -150l-41 46l54 110h114l-26 -67q57 -2 94 -37.5t37 -96.5q0 -69 -47.5 -111t-132.5 -42q-33 0 -63.5 6.5t-49.5 16t-33.5 19.5t-20.5 16l-7 7l55 86q58 -43 112 -43q70 0 70 52q0 23 -17 35t-46 12q-15 0 -28 -2.5t-19 -4.5z" />
<glyph unicode="&#xb9;" horiz-adv-x="450" d="M43 1225v143h293v-668h-162v525h-131z" />
<glyph unicode="&#xba;" horiz-adv-x="800" d="M399 1255q147 0 242.5 -98t95.5 -260q0 -155 -95.5 -250.5t-242.5 -95.5q-145 0 -241.5 96t-96.5 250q0 161 96 259.5t242 98.5zM399 1108q-76 0 -121 -57t-45 -150q0 -91 45 -147t121 -56q77 0 121.5 55.5t44.5 147.5q0 93 -44.5 150t-121.5 57z" />
<glyph unicode="&#xbb;" horiz-adv-x="1013" d="M530 449v-46l-258 -387h-206v19l251 385v16l-251 381v19h206zM948 449v-46l-260 -387h-205v19l252 385v16l-252 381v19h205z" />
<glyph unicode="&#xbc;" horiz-adv-x="1331" d="M258 -2l-197 2l973 1229h197zM649 152v102l367 414h125v-383h114v-133h-114v-152h-156v152h-336zM94 1085v144h295v-668h-162v524h-133zM840 281v-2l65 6h80v168h-2l-98 -125q-8 -11 -19 -23t-18 -18z" />
<glyph unicode="&#xbd;" horiz-adv-x="1441" d="M256 0h-195l969 1229h199zM870 127v-127h498v141h-252l156 133q82 71 82 187q0 95 -67 160t-191 65q-68 0 -128.5 -23.5t-87.5 -46.5l-26 -24l90 -129q25 21 40.5 32.5t44.5 23t58 11.5q44 0 68.5 -23.5t24.5 -60.5q0 -48 -54 -96zM102 1085v144h293v-668h-162v524h-131z " />
<glyph unicode="&#xbe;" horiz-adv-x="1439" d="M385 0h-197l971 1229h197zM772 141v105l369 411h123v-383h106v-133h-106v-141h-158v141h-334zM88 1085v144h469v-107l-121 -153q72 -19 111 -67.5t39 -121.5q0 -104 -71.5 -169.5t-205.5 -65.5q-151 0 -241 90l86 119q6 -6 17.5 -16t49.5 -26t80 -16q57 0 86 23.5 t29 60.5t-26 58.5t-77 21.5h-88v80l117 145h-254zM963 270v-2l65 6h78v168h-2l-96 -125q-8 -10 -19.5 -22t-18.5 -19z" />
<glyph unicode="&#xbf;" horiz-adv-x="890" d="M719 -70l125 -198q-5 -5 -14 -13t-42 -28.5t-70.5 -36t-98.5 -28.5t-127 -13q-193 0 -312 91t-119 247q0 60 16.5 110t43 85t58.5 65t65 55t61.5 48.5t48 52.5t23.5 61l4 43h197v-65q0 -59 -24 -107.5t-58.5 -81.5t-69 -64.5t-58.5 -71t-24 -85.5q0 -65 46.5 -103 t127.5 -38q32 0 64 7.5t55.5 18.5t43 22.5t29.5 18.5zM621 741q0 -61 -42 -103t-102 -42t-101.5 42t-41.5 103q0 60 41.5 103t101.5 43t102 -43t42 -103z" />
<glyph unicode="&#xc0;" d="M741 1229l488 -1229h-264l-88 238h-531l-88 -238h-264l487 1229h260zM610 954l-190 -516h383zM520 1300l-192 277l278 41l80 -318h-166z" />
<glyph unicode="&#xc1;" d="M741 1229l488 -1229h-264l-88 238h-531l-88 -238h-264l487 1229h260zM610 954l-190 -516h383zM915 1571l-221 -271h-162l103 297z" />
<glyph unicode="&#xc2;" d="M741 1229l488 -1229h-264l-88 238h-531l-88 -238h-264l487 1229h260zM610 954l-190 -516h383zM707 1323l-95 127l-94 -127h-174l174 268h191l174 -268h-176z" />
<glyph unicode="&#xc3;" d="M741 1229l488 -1229h-264l-88 238h-531l-88 -238h-264l487 1229h260zM610 954l-190 -516h383zM770 1329q-54 0 -105 22t-92.5 44t-70.5 22q-30 0 -45 -16t-23 -47l-8 -33l-174 16l12 70q16 91 67.5 144t139.5 53q53 0 103 -23t91.5 -45.5t71.5 -22.5q55 0 70 64l8 33 l172 -17l-10 -67q-14 -90 -66.5 -143.5t-140.5 -53.5z" />
<glyph unicode="&#xc4;" d="M741 1229l488 -1229h-264l-88 238h-531l-88 -238h-264l487 1229h260zM610 954l-190 -516h383zM309 1446q0 51 36.5 88t84.5 37q50 0 87.5 -37t37.5 -88q0 -49 -37.5 -86t-87.5 -37q-48 0 -84.5 37t-36.5 86zM670 1446q0 51 36.5 88t84.5 37q51 0 87.5 -37t36.5 -88 q0 -50 -36.5 -86.5t-87.5 -36.5q-48 0 -84.5 37t-36.5 86z" />
<glyph unicode="&#xc5;" d="M741 1229l488 -1229h-264l-88 238h-531l-88 -238h-264l487 1229h260zM610 954l-190 -516h383zM379 1444q0 82 60.5 133t170.5 51t171 -51t61 -133t-61 -133t-171 -51t-170.5 51t-60.5 133zM707 1444q0 35 -25.5 54.5t-71.5 19.5q-44 0 -69 -19.5t-25 -54.5q0 -74 94 -74 q97 0 97 74z" />
<glyph unicode="&#xc6;" horiz-adv-x="1830" d="M-29 0l840 1229h948v-217h-663v-295h536v-201h-536v-299h663v-217h-911v248h-418l-162 -248h-297zM840 874l-277 -421h285v421h-8z" />
<glyph unicode="&#xc7;" horiz-adv-x="1138" d="M596 -150l-41 46l39 84q-241 32 -383.5 209t-142.5 425q0 133 44 249.5t123.5 203.5t198 137.5t260.5 50.5q80 0 152 -15.5t118 -37.5t81 -44.5t50 -37.5l15 -16l-143 -191q-4 4 -11.5 11t-33.5 25.5t-55 32t-75.5 25t-95.5 11.5q-163 0 -267.5 -114t-104.5 -290 t104.5 -290.5t267.5 -114.5q49 0 95 11t76.5 26.5t54 31t34.5 26.5l11 11l143 -190q-5 -6 -15.5 -16t-47 -36t-79 -46t-112.5 -37t-147 -19l-13 -32q57 -2 94 -37.5t37 -96.5q0 -69 -47.5 -111t-132.5 -42q-33 0 -63.5 6.5t-49.5 16t-33.5 19.5t-20.5 16l-7 7l55 86 q58 -43 113 -43q70 0 70 52q0 23 -17.5 35t-46.5 12q-15 0 -27.5 -2.5t-17.5 -4.5z" />
<glyph unicode="&#xc8;" horiz-adv-x="1099" d="M924 723v-201h-537v-305h637v-217h-885v1229h885v-217h-637v-289h537zM528 1300l-192 277l278 41l80 -318h-166z" />
<glyph unicode="&#xc9;" horiz-adv-x="1099" d="M897 1571l-221 -271h-162l102 297zM924 723v-201h-537v-305h637v-217h-885v1229h885v-217h-637v-289h537z" />
<glyph unicode="&#xca;" horiz-adv-x="1099" d="M696 1323l-94 127l-94 -127h-174l174 268h190l174 -268h-176zM924 723v-201h-537v-305h637v-217h-885v1229h885v-217h-637v-289h537z" />
<glyph unicode="&#xcb;" horiz-adv-x="1099" d="M299 1446q0 51 36.5 88t84.5 37q50 0 87.5 -37t37.5 -88q0 -49 -37.5 -86t-87.5 -37q-48 0 -84.5 37t-36.5 86zM659 1446q0 51 36.5 88t84.5 37q51 0 88 -37t37 -88q0 -50 -37 -86.5t-88 -36.5q-48 0 -84.5 37t-36.5 86zM924 723v-201h-537v-305h637v-217h-885v1229h885 v-217h-637v-289h537z" />
<glyph unicode="&#xcc;" horiz-adv-x="528" d="M387 1229v-1229h-248v1229h248zM172 1300l-192 277l278 41l80 -318h-166z" />
<glyph unicode="&#xcd;" horiz-adv-x="528" d="M387 1229v-1229h-248v1229h248zM567 1571l-221 -271h-162l103 297z" />
<glyph unicode="&#xce;" horiz-adv-x="528" d="M387 1229v-1229h-248v1229h248zM362 1323l-94 127l-94 -127h-174l174 268h191l174 -268h-177z" />
<glyph unicode="&#xcf;" horiz-adv-x="528" d="M387 1229v-1229h-248v1229h248zM-37 1446q0 51 36.5 88t84.5 37q50 0 87.5 -37t37.5 -88q0 -49 -37.5 -86t-87.5 -37q-48 0 -84.5 37t-36.5 86zM324 1446q0 51 36 88t84 37q51 0 88 -37t37 -88q0 -50 -37 -86.5t-88 -36.5q-47 0 -83.5 37t-36.5 86z" />
<glyph unicode="&#xd0;" horiz-adv-x="1302" d="M37 512v221h106v496h453q289 0 464 -171t175 -444q0 -272 -175 -443t-464 -171h-453v512h-106zM580 1012h-189v-279h275v-221h-275v-295h189q172 0 285.5 107t113.5 290q0 187 -112.5 292.5t-286.5 105.5z" />
<glyph unicode="&#xd1;" horiz-adv-x="1366" d="M1227 1229v-1229h-191l-649 797v-797h-248v1229h191l649 -789v789h248zM842 1329q-54 0 -105 22t-93 44t-71 22q-30 0 -44 -15.5t-23 -47.5l-8 -33l-174 16l12 70q16 91 67.5 144t139.5 53q53 0 103 -23t91.5 -45.5t71.5 -22.5q55 0 70 64l8 33l172 -17l-10 -67 q-14 -90 -66.5 -143.5t-140.5 -53.5z" />
<glyph unicode="&#xd2;" horiz-adv-x="1380" d="M688 -29q-136 0 -253 51t-197.5 138t-126 204.5t-45.5 249.5t45.5 249.5t126 204t197.5 137t253 50.5q183 0 327 -86.5t221 -232t77 -322.5t-77 -323t-221 -233t-327 -87zM688 211q161 0 265 114t104 289t-104 289.5t-265 114.5q-158 0 -261 -114.5t-103 -289.5t103 -289 t261 -114zM604 1323l-192 276l278 41l80 -317h-166z" />
<glyph unicode="&#xd3;" horiz-adv-x="1380" d="M983 1593l-221 -270h-162l102 297zM688 -29q-136 0 -253 51t-197.5 138t-126 204.5t-45.5 249.5t45.5 249.5t126 204t197.5 137t253 50.5q183 0 327 -86.5t221 -232t77 -322.5t-77 -323t-221 -233t-327 -87zM688 211q161 0 265 114t104 289t-104 289.5t-265 114.5 q-158 0 -261 -114.5t-103 -289.5t103 -289t261 -114z" />
<glyph unicode="&#xd4;" horiz-adv-x="1380" d="M786 1323l-94 127l-94 -127h-174l174 268h190l175 -268h-177zM688 -29q-136 0 -253 51t-197.5 138t-126 204.5t-45.5 249.5t45.5 249.5t126 204t197.5 137t253 50.5q183 0 327 -86.5t221 -232t77 -322.5t-77 -323t-221 -233t-327 -87zM688 211q161 0 265 114t104 289 t-104 289.5t-265 114.5q-158 0 -261 -114.5t-103 -289.5t103 -289t261 -114z" />
<glyph unicode="&#xd5;" horiz-adv-x="1380" d="M688 -29q-136 0 -253 51t-197.5 138t-126 204.5t-45.5 249.5t45.5 249.5t126 204t197.5 137t253 50.5q183 0 327 -86.5t221 -232t77 -322.5t-77 -323t-221 -233t-327 -87zM688 211q161 0 265 114t104 289t-104 289.5t-265 114.5q-158 0 -261 -114.5t-103 -289.5t103 -289 t261 -114zM842 1329q-54 0 -105 22t-93 44t-71 22q-30 0 -44 -15.5t-23 -47.5l-8 -33l-174 16l12 70q16 91 67.5 144t139.5 53q53 0 103 -23t91.5 -45.5t71.5 -22.5q55 0 70 64l8 33l172 -17l-10 -67q-14 -90 -66.5 -143.5t-140.5 -53.5z" />
<glyph unicode="&#xd6;" horiz-adv-x="1380" d="M387 1446q0 51 36.5 88t84.5 37q50 0 87.5 -37t37.5 -88q0 -49 -37.5 -86t-87.5 -37q-48 0 -84.5 37t-36.5 86zM748 1446q0 51 36 88t84 37q51 0 88 -37t37 -88q0 -50 -37 -86.5t-88 -36.5q-47 0 -83.5 37t-36.5 86zM688 -29q-136 0 -253 51t-197.5 138t-126 204.5 t-45.5 249.5t45.5 249.5t126 204t197.5 137t253 50.5q183 0 327 -86.5t221 -232t77 -322.5t-77 -323t-221 -233t-327 -87zM688 211q161 0 265 114t104 289t-104 289.5t-265 114.5q-158 0 -261 -114.5t-103 -289.5t103 -289t261 -114z" />
<glyph unicode="&#xd7;" horiz-adv-x="1040" d="M231 184l-139 140l289 292l-289 295l139 140l289 -293l289 293l139 -140l-291 -295l291 -292l-139 -140l-289 293z" />
<glyph unicode="&#xd8;" horiz-adv-x="1409" d="M705 -29q-221 0 -379 123l-93 -94h-256l222 227q-117 168 -117 387q0 176 77.5 322t221 232.5t324.5 86.5q216 0 374 -120l92 94h256l-219 -225q121 -164 121 -390q0 -132 -45.5 -249.5t-125.5 -204.5t-197.5 -138t-255.5 -51zM705 211q161 0 264.5 114t103.5 289 q0 115 -45 203l-528 -543q88 -63 205 -63zM340 614q0 -111 41 -198l526 540q-91 62 -202 62q-158 0 -261.5 -114.5t-103.5 -289.5z" />
<glyph unicode="&#xd9;" horiz-adv-x="1304" d="M651 -29q-239 0 -383.5 155.5t-144.5 397.5v705h248v-705q0 -139 72.5 -226t207.5 -87q139 0 210 86t71 227v705h248v-705q0 -159 -61.5 -283.5t-183 -197t-284.5 -72.5zM563 1300l-192 277l278 41l80 -318h-166z" />
<glyph unicode="&#xda;" horiz-adv-x="1304" d="M946 1571l-221 -271h-162l103 297zM651 -29q-239 0 -383.5 155.5t-144.5 397.5v705h248v-705q0 -139 72.5 -226t207.5 -87q139 0 210 86t71 227v705h248v-705q0 -159 -61.5 -283.5t-183 -197t-284.5 -72.5z" />
<glyph unicode="&#xdb;" horiz-adv-x="1304" d="M750 1300l-95 127l-94 -127h-174l174 269h191l174 -269h-176zM651 -29q-239 0 -383.5 155.5t-144.5 397.5v705h248v-705q0 -139 72.5 -226t207.5 -87q139 0 210 86t71 227v705h248v-705q0 -159 -61.5 -283.5t-183 -197t-284.5 -72.5z" />
<glyph unicode="&#xdc;" horiz-adv-x="1304" d="M352 1446q0 51 36.5 88t84.5 37q50 0 87.5 -37t37.5 -88q0 -49 -37.5 -86t-87.5 -37q-48 0 -84.5 37t-36.5 86zM713 1446q0 51 36.5 88t84.5 37q51 0 87.5 -37t36.5 -88q0 -50 -36.5 -86.5t-87.5 -36.5q-48 0 -84.5 37t-36.5 86zM651 -29q-239 0 -383.5 155.5 t-144.5 397.5v705h248v-705q0 -139 72.5 -226t207.5 -87q139 0 210 86t71 227v705h248v-705q0 -159 -61.5 -283.5t-183 -197t-284.5 -72.5z" />
<glyph unicode="&#xdd;" horiz-adv-x="1110" d="M606 801l240 428h272l-438 -752v-477h-248v473l-438 756h270l244 -428l49 -113zM856 1638l-221 -270h-162l102 297z" />
<glyph unicode="&#xde;" horiz-adv-x="1200" d="M387 1229v-187h291q224 0 352.5 -111.5t128.5 -309.5q0 -210 -136 -324.5t-361 -114.5h-275v-182h-248v1229h248zM903 610q0 104 -67.5 159.5t-182.5 55.5h-266v-432h268q117 0 182.5 54t65.5 163z" />
<glyph unicode="&#xdf;" horiz-adv-x="1021" d="M487 512v174q175 33 175 186q0 70 -39.5 112t-110.5 42q-70 0 -112 -48t-42 -130v-848h-245v829q0 192 105.5 299t299.5 107q176 0 286.5 -103t110.5 -253q0 -88 -36.5 -154t-100.5 -100q84 -32 130 -107t46 -176q0 -160 -102 -257t-272 -97q-46 0 -78 3t-40 6l-9 3 l6 162q46 -4 73 -4q90 0 141.5 48t51.5 130q0 83 -51.5 129.5t-141.5 46.5h-45z" />
<glyph unicode="&#xe0;" horiz-adv-x="956" d="M854 530v-530h-168l-33 109h-10q-80 -129 -276 -129q-146 0 -231 76t-85 196q0 133 100 208t291 75q94 0 176 -23v27q0 77 -51.5 111t-152.5 34q-56 0 -112.5 -15t-85.5 -31l-28 -15l-77 180q5 3 15 8.5t43.5 19t71 23.5t97 18.5t121.5 8.5q191 0 293 -95t102 -256z M430 147q77 0 131 44t57 112v70q-50 26 -147 26q-91 0 -139.5 -34.5t-48.5 -96.5q0 -54 40 -87.5t107 -33.5zM385 1018l-192 276l278 41l80 -317h-166z" />
<glyph unicode="&#xe1;" horiz-adv-x="956" d="M854 530v-530h-168l-33 109h-10q-80 -129 -276 -129q-146 0 -231 76t-85 196q0 133 100 208t291 75q94 0 176 -23v27q0 77 -51.5 111t-152.5 34q-56 0 -112.5 -15t-85.5 -31l-28 -15l-77 180q5 3 15 8.5t43.5 19t71 23.5t97 18.5t121.5 8.5q191 0 293 -95t102 -256z M430 147q77 0 131 44t57 112v70q-50 26 -147 26q-91 0 -139.5 -34.5t-48.5 -96.5q0 -54 40 -87.5t107 -33.5zM760 1288l-221 -270h-162l102 297z" />
<glyph unicode="&#xe2;" horiz-adv-x="956" d="M854 530v-530h-168l-33 109h-10q-80 -129 -276 -129q-146 0 -231 76t-85 196q0 133 100 208t291 75q94 0 176 -23v27q0 77 -51.5 111t-152.5 34q-56 0 -112.5 -15t-85.5 -31l-28 -15l-77 180q5 3 15 8.5t43.5 19t71 23.5t97 18.5t121.5 8.5q191 0 293 -95t102 -256z M430 147q77 0 131 44t57 112v70q-50 26 -147 26q-91 0 -139.5 -34.5t-48.5 -96.5q0 -54 40 -87.5t107 -33.5zM547 1018l-94 127l-95 -127h-174l174 268h191l174 -268h-176z" />
<glyph unicode="&#xe3;" horiz-adv-x="956" d="M854 530v-530h-168l-33 109h-10q-80 -129 -276 -129q-146 0 -231 76t-85 196q0 133 100 208t291 75q94 0 176 -23v27q0 77 -51.5 111t-152.5 34q-56 0 -112.5 -15t-85.5 -31l-28 -15l-77 180q5 3 15 8.5t43.5 19t71 23.5t97 18.5t121.5 8.5q191 0 293 -95t102 -256z M430 147q77 0 131 44t57 112v70q-50 26 -147 26q-91 0 -139.5 -34.5t-48.5 -96.5q0 -54 40 -87.5t107 -33.5zM602 983q-54 0 -105 22t-92.5 44t-70.5 22q-30 0 -45 -16t-23 -47l-8 -33l-174 16l12 70q16 91 67.5 143.5t139.5 52.5q53 0 103 -22.5t91.5 -45t71.5 -22.5 q55 0 70 64l8 33l172 -17l-10 -67q-14 -90 -66.5 -143.5t-140.5 -53.5z" />
<glyph unicode="&#xe4;" horiz-adv-x="956" d="M854 530v-530h-168l-33 109h-10q-80 -129 -276 -129q-146 0 -231 76t-85 196q0 133 100 208t291 75q94 0 176 -23v27q0 77 -51.5 111t-152.5 34q-56 0 -112.5 -15t-85.5 -31l-28 -15l-77 180q5 3 15 8.5t43.5 19t71 23.5t97 18.5t121.5 8.5q191 0 293 -95t102 -256z M430 147q77 0 131 44t57 112v70q-50 26 -147 26q-91 0 -139.5 -34.5t-48.5 -96.5q0 -54 40 -87.5t107 -33.5zM154 1096q0 51 36 88t84 37q50 0 87.5 -37t37.5 -88q0 -49 -37.5 -86t-87.5 -37q-47 0 -83.5 37t-36.5 86zM514 1096q0 51 36.5 88t84.5 37q51 0 88 -37t37 -88 q0 -50 -37 -86.5t-88 -36.5q-48 0 -84.5 37t-36.5 86z" />
<glyph unicode="&#xe5;" horiz-adv-x="956" d="M854 530v-530h-168l-33 109h-10q-80 -129 -276 -129q-146 0 -231 76t-85 196q0 133 100 208t291 75q94 0 176 -23v27q0 77 -51.5 111t-152.5 34q-56 0 -112.5 -15t-85.5 -31l-28 -15l-77 180q5 3 15 8.5t43.5 19t71 23.5t97 18.5t121.5 8.5q191 0 293 -95t102 -256z M430 147q77 0 131 44t57 112v70q-50 26 -147 26q-91 0 -139.5 -34.5t-48.5 -96.5q0 -54 40 -87.5t107 -33.5zM225 1196q0 82 61 133t171 51t170.5 -51t60.5 -133t-60.5 -133t-170.5 -51t-171 51t-61 133zM553 1196q0 35 -25 54.5t-71 19.5q-44 0 -69.5 -19.5t-25.5 -54.5 q0 -36 25 -55t70 -19q96 0 96 74z" />
<glyph unicode="&#xe6;" horiz-adv-x="1501" d="M1319 246l86 -162q-4 -4 -12.5 -11t-38.5 -25t-64.5 -32t-91 -25t-117.5 -11q-211 0 -333 122q-119 -122 -347 -122q-173 0 -263.5 75t-90.5 189q0 280 385 280q98 0 184 -24v30q0 78 -53 118t-149 40q-54 0 -110.5 -17.5t-85.5 -34.5l-30 -18l-79 185q6 3 16 8.5t44 19 t70.5 23.5t92 18.5t110.5 8.5q208 0 316 -111q117 111 289 111q187 0 294 -116.5t107 -311.5l-2 -68h-588q12 -106 75 -158.5t165 -52.5q60 0 115 18t81 36zM430 147q90 0 138 51.5t48 129.5v34q-73 25 -161 25q-172 0 -172 -125q0 -54 37.5 -84.5t109.5 -30.5zM1040 696 q-69 0 -115 -41.5t-61 -124.5h344q-8 79 -51 122.5t-117 43.5z" />
<glyph unicode="&#xe7;" horiz-adv-x="835" d="M406 -154l-41 45l47 99q-161 31 -256 151t-95 289q0 197 125.5 324t327.5 127q52 0 98.5 -8t76.5 -19.5t52.5 -23t32.5 -19.5l10 -8l-63 -176q-9 6 -25 14.5t-64.5 22.5t-94.5 14q-100 0 -164 -67.5t-64 -180.5q0 -115 63.5 -181.5t164.5 -66.5q46 0 92 13t69 25l23 13 l61 -174q-3 -3 -10 -8t-31 -18.5t-51.5 -23.5t-73 -19t-94.5 -10l-16 -46q58 -2 94.5 -37t36.5 -96q0 -69 -47.5 -111t-132.5 -42q-33 0 -63.5 6.5t-49.5 16t-33.5 19.5t-20.5 16l-7 7l55 86q58 -43 113 -43q69 0 69 51q0 23 -17.5 35.5t-45.5 12.5q-15 0 -27.5 -2.5 t-17.5 -4.5z" />
<glyph unicode="&#xe8;" horiz-adv-x="942" d="M760 242l86 -162q-4 -4 -12.5 -11t-38.5 -25.5t-64.5 -32t-91 -25t-117.5 -11.5q-212 0 -336.5 127.5t-124.5 327.5q0 195 118.5 323t307.5 128q187 0 294.5 -116.5t107.5 -311.5l-2 -68h-588q10 -108 72.5 -161.5t167.5 -53.5q60 0 115.5 18t80.5 36zM481 696 q-69 0 -115 -41.5t-61 -124.5h344q-8 79 -51 122.5t-117 43.5zM381 1018l-193 276l279 41l80 -317h-166z" />
<glyph unicode="&#xe9;" horiz-adv-x="942" d="M793 1288l-222 -270h-161l102 297zM760 242l86 -162q-4 -4 -12.5 -11t-38.5 -25.5t-64.5 -32t-91 -25t-117.5 -11.5q-212 0 -336.5 127.5t-124.5 327.5q0 195 118.5 323t307.5 128q187 0 294.5 -116.5t107.5 -311.5l-2 -68h-588q10 -108 72.5 -161.5t167.5 -53.5 q60 0 115.5 18t80.5 36zM481 696q-69 0 -115 -41.5t-61 -124.5h344q-8 79 -51 122.5t-117 43.5z" />
<glyph unicode="&#xea;" horiz-adv-x="942" d="M580 1018l-95 127l-94 -127h-174l174 268h191l174 -268h-176zM760 242l86 -162q-4 -4 -12.5 -11t-38.5 -25.5t-64.5 -32t-91 -25t-117.5 -11.5q-212 0 -336.5 127.5t-124.5 327.5q0 195 118.5 323t307.5 128q187 0 294.5 -116.5t107.5 -311.5l-2 -68h-588 q10 -108 72.5 -161.5t167.5 -53.5q60 0 115.5 18t80.5 36zM481 696q-69 0 -115 -41.5t-61 -124.5h344q-8 79 -51 122.5t-117 43.5z" />
<glyph unicode="&#xeb;" horiz-adv-x="942" d="M184 1096q0 51 36.5 88t84.5 37q50 0 87.5 -37t37.5 -88q0 -49 -37.5 -86t-87.5 -37q-48 0 -84.5 37t-36.5 86zM545 1096q0 51 36.5 88t84.5 37q51 0 88 -37t37 -88q0 -50 -37 -86.5t-88 -36.5q-48 0 -84.5 37t-36.5 86zM760 242l86 -162q-4 -4 -12.5 -11t-38.5 -25.5 t-64.5 -32t-91 -25t-117.5 -11.5q-212 0 -336.5 127.5t-124.5 327.5q0 195 118.5 323t307.5 128q187 0 294.5 -116.5t107.5 -311.5l-2 -68h-588q10 -108 72.5 -161.5t167.5 -53.5q60 0 115.5 18t80.5 36zM481 696q-69 0 -115 -41.5t-61 -124.5h344q-8 79 -51 122.5 t-117 43.5z" />
<glyph unicode="&#xec;" horiz-adv-x="473" d="M113 0v860h245v-860h-245zM143 1018l-192 276l278 41l80 -317h-166z" />
<glyph unicode="&#xed;" horiz-adv-x="473" d="M541 1288l-222 -270h-161l102 297zM113 0v860h245v-860h-245z" />
<glyph unicode="&#xee;" horiz-adv-x="473" d="M336 1040l-94 127l-95 -127h-174l174 269h191l174 -269h-176zM113 0v860h245v-860h-245z" />
<glyph unicode="&#xef;" horiz-adv-x="473" d="M-57 1161q0 51 36 88t84 37q50 0 87.5 -37t37.5 -88q0 -49 -37.5 -86t-87.5 -37q-47 0 -83.5 37t-36.5 86zM303 1161q0 51 36.5 88t84.5 37q51 0 88 -37t37 -88q0 -50 -37 -86.5t-88 -36.5q-48 0 -84.5 37t-36.5 86zM113 0v860h245v-860h-245z" />
<glyph unicode="&#xf0;" horiz-adv-x="1038" d="M518 -23q-205 0 -331 122.5t-126 328.5q0 199 126.5 325t330.5 126q8 0 24.5 -1t24.5 -1v6q-32 39 -61 90l-57 96l-213 -131l-80 135l213 129l-156 266v23h236l104 -176l225 137l78 -133l-223 -137l227 -375q62 -108 88 -186t29 -175v-18q0 -207 -124.5 -329t-334.5 -122 zM729 430q0 115 -58 180.5t-153 65.5q-93 0 -151 -67t-58 -179q0 -113 58 -181.5t151 -68.5q95 0 153 68t58 182z" />
<glyph unicode="&#xf1;" horiz-adv-x="1054" d="M358 492v-492h-245v860h153l35 -121h14q51 75 115 109.5t164 34.5q165 0 261.5 -104.5t96.5 -278.5v-500h-245v479q0 81 -47 135t-128 54q-80 0 -127 -53t-47 -123zM676 1047q-54 0 -105 22t-92.5 44t-70.5 22q-30 0 -44.5 -16.5t-23.5 -47.5l-8 -33l-174 17l12 69 q16 91 67.5 144t139.5 53q53 0 103 -22.5t91.5 -45t71.5 -22.5q56 0 70 63l8 33l172 -16l-10 -68q-14 -90 -66.5 -143t-140.5 -53z" />
<glyph unicode="&#xf2;" horiz-adv-x="1019" d="M958 426q0 -199 -129.5 -322.5t-318.5 -123.5q-191 0 -321 123.5t-130 322.5q0 201 130.5 328t320.5 127q189 0 318.5 -127t129.5 -328zM510 174q91 0 149 69.5t58 186.5q0 114 -58.5 185t-148.5 71q-93 0 -151 -70.5t-58 -185.5q0 -117 58 -186.5t151 -69.5zM420 1018 l-193 276l279 41l80 -317h-166z" />
<glyph unicode="&#xf3;" horiz-adv-x="1019" d="M807 1288l-221 -270h-162l102 297zM958 426q0 -199 -129.5 -322.5t-318.5 -123.5q-191 0 -321 123.5t-130 322.5q0 201 130.5 328t320.5 127q189 0 318.5 -127t129.5 -328zM510 174q91 0 149 69.5t58 186.5q0 114 -58.5 185t-148.5 71q-93 0 -151 -70.5t-58 -185.5 q0 -117 58 -186.5t151 -69.5z" />
<glyph unicode="&#xf4;" horiz-adv-x="1019" d="M606 1040l-94 127l-94 -127h-174l174 269h190l174 -269h-176zM958 426q0 -199 -129.5 -322.5t-318.5 -123.5q-191 0 -321 123.5t-130 322.5q0 201 130.5 328t320.5 127q189 0 318.5 -127t129.5 -328zM510 174q91 0 149 69.5t58 186.5q0 114 -58.5 185t-148.5 71 q-93 0 -151 -70.5t-58 -185.5q0 -117 58 -186.5t151 -69.5z" />
<glyph unicode="&#xf5;" horiz-adv-x="1019" d="M958 426q0 -199 -129.5 -322.5t-318.5 -123.5q-191 0 -321 123.5t-130 322.5q0 201 130.5 328t320.5 127q189 0 318.5 -127t129.5 -328zM510 174q91 0 149 69.5t58 186.5q0 114 -58.5 185t-148.5 71q-93 0 -151 -70.5t-58 -185.5q0 -117 58 -186.5t151 -69.5zM655 1049 q-54 0 -105 22t-92.5 44t-70.5 22q-30 0 -44.5 -16.5t-23.5 -47.5l-8 -33l-174 17l13 69q16 91 67 144t139 53q53 0 103.5 -22.5t92 -45t71.5 -22.5q55 0 69 63l8 33l172 -16l-10 -68q-14 -90 -66.5 -143t-140.5 -53z" />
<glyph unicode="&#xf6;" horiz-adv-x="1019" d="M209 1163q0 51 36.5 88t84.5 37q50 0 87.5 -37t37.5 -88q0 -49 -37.5 -86t-87.5 -37q-48 0 -84.5 37t-36.5 86zM569 1163q0 51 36.5 88t84.5 37q51 0 88 -37t37 -88q0 -50 -37 -86.5t-88 -36.5q-48 0 -84.5 37t-36.5 86zM958 426q0 -199 -129.5 -322.5t-318.5 -123.5 q-191 0 -321 123.5t-130 322.5q0 201 130.5 328t320.5 127q189 0 318.5 -127t129.5 -328zM510 174q91 0 149 69.5t58 186.5q0 114 -58.5 185t-148.5 71q-93 0 -151 -70.5t-58 -185.5q0 -117 58 -186.5t151 -69.5z" />
<glyph unicode="&#xf7;" horiz-adv-x="993" d="M346 254q0 63 43.5 107.5t106.5 44.5t107 -44.5t44 -107.5t-44 -106.5t-107 -43.5t-106.5 43.5t-43.5 106.5zM346 969q0 63 43.5 107t106.5 44t107 -44t44 -107t-44 -106.5t-107 -43.5t-106.5 43.5t-43.5 106.5zM84 506v201h825v-201h-825z" />
<glyph unicode="&#xf8;" horiz-adv-x="1019" d="M958 426q0 -199 -129.5 -322.5t-318.5 -123.5q-151 0 -266 77l-56 -57h-163l131 137q-97 118 -97 289q0 201 130.5 328t320.5 127q144 0 256 -76l53 55h166l-131 -135q104 -120 104 -299zM510 174q91 0 149 69.5t58 186.5q0 71 -25 129l-305 -344q50 -41 123 -41z M301 430q0 -70 21 -123l303 340q-51 39 -115 39q-93 0 -151 -70.5t-58 -185.5z" />
<glyph unicode="&#xf9;" horiz-adv-x="1050" d="M692 362v498h246v-860h-164l-43 117h-10q-95 -137 -266 -137q-163 0 -258 103t-95 277v500h246v-479q0 -87 43 -141t123 -54q83 0 130.5 54.5t47.5 121.5zM424 1018l-193 276l279 41l80 -317h-166z" />
<glyph unicode="&#xfa;" horiz-adv-x="1050" d="M809 1288l-221 -270h-162l102 297zM692 362v498h246v-860h-164l-43 117h-10q-95 -137 -266 -137q-163 0 -258 103t-95 277v500h246v-479q0 -87 43 -141t123 -54q83 0 130.5 54.5t47.5 121.5z" />
<glyph unicode="&#xfb;" horiz-adv-x="1050" d="M602 1018l-94 127l-94 -127h-174l174 268h190l174 -268h-176zM692 362v498h246v-860h-164l-43 117h-10q-95 -137 -266 -137q-163 0 -258 103t-95 277v500h246v-479q0 -87 43 -141t123 -54q83 0 130.5 54.5t47.5 121.5z" />
<glyph unicode="&#xfc;" horiz-adv-x="1050" d="M207 1143q0 51 36.5 88t84.5 37q50 0 87.5 -37t37.5 -88q0 -49 -37.5 -86t-87.5 -37q-48 0 -84.5 37t-36.5 86zM567 1143q0 51 36.5 88t84.5 37q51 0 88 -37t37 -88q0 -50 -37 -86.5t-88 -36.5q-48 0 -84.5 37t-36.5 86zM692 362v498h246v-860h-164l-43 117h-10 q-95 -137 -266 -137q-163 0 -258 103t-95 277v500h246v-479q0 -87 43 -141t123 -54q83 0 130.5 54.5t47.5 121.5z" />
<glyph unicode="&#xfd;" horiz-adv-x="933" d="M930 860l-504 -1179h-254l184 389l-354 790h270l183 -500q16 -46 16 -69h12q0 26 15 69l182 500h250zM764 1288l-221 -270h-162l102 297z" />
<glyph unicode="&#xfe;" horiz-adv-x="1067" d="M369 121h-11v-440h-245v1548h245v-481h9q3 5 8 14t25.5 32t46 40.5t69.5 32t94 14.5q174 0 284 -123t110 -326q0 -199 -112 -325.5t-282 -126.5q-53 0 -97 14.5t-69.5 35t-43.5 41.5t-24 35zM346 428q0 -113 57.5 -179.5t149.5 -66.5q89 0 146 68.5t57 177.5t-57 179.5 t-146 70.5q-92 0 -149.5 -68t-57.5 -182z" />
<glyph unicode="&#xff;" horiz-adv-x="933" d="M930 860l-504 -1179h-254l184 389l-354 790h270l183 -500q16 -46 16 -69h12q0 26 15 69l182 500h250zM164 1139q0 51 36.5 88t84.5 37q50 0 87.5 -37t37.5 -88q0 -49 -37.5 -86t-87.5 -37q-48 0 -84.5 37t-36.5 86zM524 1139q0 51 36.5 88t84.5 37q51 0 88 -37t37 -88 q0 -50 -37 -86.5t-88 -36.5q-48 0 -84.5 37t-36.5 86z" />
<glyph unicode="&#x152;" horiz-adv-x="2082" d="M688 -29q-136 0 -253 51t-197.5 138t-126 204.5t-45.5 249.5t45.5 249.5t126 204t197.5 137t253 50.5q264 0 438 -174v148h885v-217h-637v-289h537v-201h-537v-305h637v-217h-885v145q-174 -174 -438 -174zM688 211q161 0 265 114t104 289t-104 289.5t-265 114.5 q-158 0 -261 -114.5t-103 -289.5t103 -289t261 -114z" />
<glyph unicode="&#x153;" horiz-adv-x="1667" d="M1487 242l86 -162q-4 -4 -12.5 -11t-38.5 -25.5t-64.5 -32t-91 -25t-117.5 -11.5q-125 0 -222 46.5t-157 130.5q-62 -82 -156 -127t-204 -45q-191 0 -321 123.5t-130 322.5q0 201 130.5 328t320.5 127q108 0 202 -46t156 -128q59 82 147.5 128t198.5 46 q187 0 294.5 -116.5t107.5 -311.5l-2 -68h-588q10 -108 72.5 -161.5t167.5 -53.5q60 0 115 18t81 36zM510 174q91 0 149 69.5t58 186.5q0 114 -58.5 185t-148.5 71q-93 0 -151 -70.5t-58 -185.5q0 -117 58 -186.5t151 -69.5zM1208 696q-69 0 -115 -41.5t-61 -124.5h344 q-8 79 -51 122.5t-117 43.5z" />
<glyph unicode="&#x178;" horiz-adv-x="1110" d="M606 801l240 428h272l-438 -752v-477h-248v473l-438 756h270l244 -428l49 -113zM258 1446q0 51 36.5 88t84.5 37q50 0 87.5 -37t37.5 -88q0 -49 -37.5 -86t-87.5 -37q-48 0 -84.5 37t-36.5 86zM618 1446q0 51 36.5 88t84.5 37q51 0 88 -37t37 -88q0 -50 -37 -86.5 t-88 -36.5q-48 0 -84.5 37t-36.5 86z" />
<glyph unicode="&#x2c6;" horiz-adv-x="759" d="M487 1323l-94 127l-94 -127h-174l174 268h190l175 -268h-177z" />
<glyph unicode="&#x2dc;" horiz-adv-x="993" d="M641 1329q-54 0 -105 22t-92.5 44t-70.5 22q-30 0 -45 -16t-23 -47l-8 -33l-174 16l12 70q16 91 67.5 144t139.5 53q53 0 103 -23t91.5 -45.5t71.5 -22.5q55 0 70 64l8 33l172 -17l-10 -67q-14 -90 -66.5 -143.5t-140.5 -53.5z" />
<glyph unicode="&#x2000;" horiz-adv-x="832" />
<glyph unicode="&#x2001;" horiz-adv-x="1665" />
<glyph unicode="&#x2002;" horiz-adv-x="832" />
<glyph unicode="&#x2003;" horiz-adv-x="1665" />
<glyph unicode="&#x2004;" horiz-adv-x="555" />
<glyph unicode="&#x2005;" horiz-adv-x="416" />
<glyph unicode="&#x2006;" horiz-adv-x="277" />
<glyph unicode="&#x2007;" horiz-adv-x="277" />
<glyph unicode="&#x2008;" horiz-adv-x="208" />
<glyph unicode="&#x2009;" horiz-adv-x="333" />
<glyph unicode="&#x200a;" horiz-adv-x="92" />
<glyph unicode="&#x2010;" horiz-adv-x="778" d="M102 369v200h574v-200h-574z" />
<glyph unicode="&#x2011;" horiz-adv-x="778" d="M102 369v200h574v-200h-574z" />
<glyph unicode="&#x2012;" horiz-adv-x="778" d="M102 369v200h574v-200h-574z" />
<glyph unicode="&#x2013;" horiz-adv-x="927" d="M119 489v199h686v-199h-686z" />
<glyph unicode="&#x2014;" horiz-adv-x="1445" d="M119 489v199h1204v-199h-1204z" />
<glyph unicode="&#x2018;" horiz-adv-x="458" d="M391 1100q-124 -27 -141 -107q48 -11 78 -48.5t30 -88.5q0 -60 -40.5 -101.5t-100.5 -41.5t-101.5 41.5t-41.5 101.5v12q0 132 72.5 233t205.5 128z" />
<glyph unicode="&#x2019;" horiz-adv-x="460" d="M84 842q118 24 139 106q-48 11 -78 48.5t-30 88.5q0 60 41.5 102t101.5 42q59 0 101 -42t42 -102v-12q0 -132 -73 -232.5t-207 -127.5z" />
<glyph unicode="&#x201a;" horiz-adv-x="452" d="M367 121v-12q0 -132 -73.5 -233t-207.5 -128l-37 129q120 26 141 107q-48 11 -79 48t-31 89q0 60 41.5 101.5t101.5 41.5t102 -41.5t42 -101.5z" />
<glyph unicode="&#x201c;" horiz-adv-x="831" d="M74 856v12q0 132 72.5 233t205.5 128l39 -129q-124 -27 -141 -107q48 -11 78 -48.5t30 -88.5q0 -60 -40.5 -101.5t-100.5 -41.5t-101.5 41.5t-41.5 101.5zM762 1100q-122 -27 -139 -107q48 -11 78 -48.5t30 -88.5q0 -60 -40.5 -101.5t-100.5 -41.5t-102 41.5t-42 101.5 v12q0 132 73 233t206 128z" />
<glyph unicode="&#x201d;" horiz-adv-x="813" d="M754 1085v-12q0 -132 -73.5 -232.5t-207.5 -127.5l-37 129q118 24 139 106q-48 11 -78 48t-30 89q0 60 41 102t100 42q60 0 103 -42t43 -102zM84 842q118 24 139 106q-48 11 -78 48t-30 89q0 60 40.5 102t100.5 42t101.5 -42t41.5 -102v-12q0 -132 -72.5 -232.5 t-205.5 -127.5z" />
<glyph unicode="&#x201e;" horiz-adv-x="819" d="M360 121v-12q0 -133 -73 -233.5t-207 -127.5l-37 129q120 26 141 107q-48 11 -79 48t-31 89q0 60 41.5 101.5t101.5 41.5t101.5 -41.5t41.5 -101.5zM733 121v-12q0 -133 -73 -233.5t-207 -127.5l-37 129q120 26 141 107q-48 11 -79.5 48.5t-31.5 88.5q0 60 42 101.5 t102 41.5t101.5 -41.5t41.5 -101.5z" />
<glyph unicode="&#x2022;" horiz-adv-x="665" d="M332 649q80 0 136 -56.5t56 -135.5t-56 -135t-136 -56t-136.5 56t-56.5 135t56.5 135.5t136.5 56.5z" />
<glyph unicode="&#x2026;" horiz-adv-x="1538" d="M86 137q0 65 45 110.5t109 45.5q66 0 111.5 -45.5t45.5 -110.5t-45.5 -110t-111.5 -45q-64 0 -109 45t-45 110zM612 137q0 65 46 110.5t110 45.5t110 -45.5t46 -110.5q0 -64 -45.5 -109.5t-110.5 -45.5t-110.5 45.5t-45.5 109.5zM1141 137q0 65 44.5 110.5t108.5 45.5 q65 0 111.5 -46t46.5 -110t-46.5 -109.5t-111.5 -45.5q-64 0 -108.5 45t-44.5 110z" />
<glyph unicode="&#x202f;" horiz-adv-x="333" />
<glyph unicode="&#x2039;" horiz-adv-x="595" d="M66 403v46l260 387h204v-19l-251 -381v-16l251 -385v-19h-204z" />
<glyph unicode="&#x203a;" horiz-adv-x="595" d="M530 449v-46l-258 -387h-206v19l251 385v16l-251 381v19h206z" />
<glyph unicode="&#x205f;" horiz-adv-x="416" />
<glyph unicode="&#x20ac;" horiz-adv-x="1206" d="M829 561v-170h-327q72 -178 272 -178q39 0 76 10.5t62 25t44.5 29t29.5 24.5l9 11l140 -188q-5 -6 -14 -16t-42.5 -36t-72 -46t-102 -36t-132.5 -16q-213 0 -349.5 113.5t-186.5 302.5h-164v170h135v55q0 42 2 62h-137v168h166q53 185 188 297t346 112q69 0 132 -15.5 t103.5 -37.5t70.5 -43.5t44 -36.5l13 -16l-140 -188q-3 4 -9.5 11t-28 24t-45.5 30t-61.5 24t-76.5 11q-194 0 -270 -172h325v-168h-362q-2 -20 -2 -62q0 -37 2 -55h362z" />
<glyph unicode="&#x2122;" horiz-adv-x="1488" d="M856 575h-158v654h109l221 -289l227 289h105v-654h-156v353l-143 -185h-62l-143 185v-353zM592 1229v-139h-184v-515h-156v515h-186v139h526z" />
<glyph unicode="&#x25fc;" horiz-adv-x="860" d="M0 860h860v-860h-860v860z" />
</font>
</defs>
</svg>
